248 3 0
1 0 3 153
2 0 45 3
3 2 4 1
4 3 48 154
5 100 7 226
6 98 9 7
7 6 8 5
8 7 12 228
9 168 11 6
10 166 224 11
11 10 12 9
12 11 222 8
13 196 15 66
14 194 156 15
15 14 16 13
16 15 154 68
17 0 19 96
18 0 198 19
19 18 20 17
20 19 197 93
21 26 23 0
22 25 201 23
23 22 24 21
24 23 204 0
25 22 27 93
26 21 172 27
27 26 28 25
28 27 170 94
29 40 31 0
30 38 49 31
31 30 32 29
32 31 52 0
33 77 35 244
34 80 56 35
35 34 36 33
36 35 54 241
37 48 39 68
38 46 30 39
39 38 40 37
40 39 29 65
41 210 43 208
42 209 218 43
43 42 44 41
44 43 217 205
45 73 47 2
46 76 38 47
47 46 48 45
48 47 37 4
49 60 51 30
50 58 164 51
51 50 52 49
52 51 162 32
53 132 55 125
54 130 36 55
55 54 56 53
56 55 34 126
57 174 59 74
58 173 50 59
59 58 60 57
60 59 49 76
61 212 63 0
62 210 72 63
63 62 64 61
64 63 70 0
65 0 67 40
66 0 13 67
67 66 68 65
68 67 16 37
69 80 71 144
70 78 64 71
71 70 72 69
72 71 62 141
73 0 75 45
74 0 57 75
75 74 76 73
76 75 60 46
77 0 79 33
78 0 70 79
79 78 80 77
80 79 69 34
81 216 83 0
82 214 102 83
83 82 84 81
84 83 101 0
85 118 87 90
86 117 0 87
87 86 88 85
88 87 0 92
89 124 91 158
90 122 85 91
91 90 92 89
92 91 88 160
93 25 95 20
94 28 134 95
95 94 96 93
96 95 133 17
97 116 99 0
98 114 6 99
99 98 100 97
100 99 5 0
101 84 103 0
102 82 209 103
103 102 104 101
104 103 212 0
105 0 107 150
106 0 226 107
107 106 108 105
108 107 225 152
109 117 111 0
110 120 229 111
111 110 112 109
112 111 232 0
113 182 115 134
114 181 98 115
115 114 116 113
116 115 97 136
117 86 119 109
118 85 149 119
119 118 120 117
120 119 152 110
121 188 123 180
122 186 90 123
123 122 124 121
124 123 89 177
125 53 127 0
126 56 144 127
127 126 128 125
128 127 142 0
129 138 131 0
130 137 54 131
131 130 132 129
132 131 53 0
133 96 135 0
134 94 113 135
135 134 136 133
136 135 116 0
137 130 139 248
138 129 192 139
139 138 140 137
140 139 190 245
141 208 143 72
142 206 128 143
143 142 144 141
144 143 126 69
145 233 147 238
146 236 0 147
147 146 148 145
148 147 0 240
149 186 151 118
150 185 105 151
151 150 152 149
152 151 108 120
153 1 155 198
154 4 16 155
155 154 156 153
156 155 14 200
157 236 159 0
158 234 89 159
159 158 160 157
160 159 92 0
161 0 163 216
162 0 52 163
163 162 164 161
164 163 50 213
165 0 167 184
166 0 10 167
167 166 168 165
168 167 9 181
169 184 171 0
170 182 28 171
171 170 172 169
172 171 26 0
173 58 175 220
174 57 0 175
175 174 176 173
176 175 0 217
177 189 179 124
178 192 0 179
179 178 180 177
180 179 0 121
181 114 183 168
182 113 170 183
183 182 184 181
184 183 169 165
185 150 187 0
186 149 122 187
187 186 188 185
188 187 121 0
189 234 191 177
190 233 140 191
191 190 192 189
192 191 138 178
193 204 195 0
194 202 14 195
195 194 196 193
196 195 13 0
197 20 199 201
198 18 153 199
199 198 200 197
200 199 156 202
201 197 203 22
202 200 194 203
203 202 204 201
204 203 193 24
205 0 207 44
206 0 142 207
207 206 208 205
208 207 141 41
209 42 211 102
210 41 62 211
211 210 212 209
212 211 61 104
213 220 215 164
214 218 82 215
215 214 216 213
216 215 81 161
217 44 219 176
218 42 214 219
219 218 220 217
220 219 213 173
221 232 223 0
222 230 12 223
223 222 224 221
224 223 10 0
225 108 227 229
226 106 5 227
227 226 228 225
228 227 8 230
229 225 231 110
230 228 222 231
231 230 232 229
232 231 221 112
233 190 235 145
234 189 158 235
235 234 236 233
236 235 157 146
237 246 239 0
238 245 145 239
239 238 240 237
240 239 148 0
241 248 243 36
242 246 0 243
243 242 244 241
244 243 0 33
245 238 247 140
246 237 242 247
247 246 248 245
248 247 241 137
