248 3 0
1 1 2 4
2 2 3 5
3 2 5 4
4 4 5 6
5 7 8 10
6 8 9 11
7 8 11 10
8 10 11 12
9 9 13 11
10 13 14 15
11 13 15 11
12 11 15 12
13 16 17 19
14 17 18 20
15 17 20 19
16 19 20 6
17 21 22 23
18 22 1 24
19 22 24 23
20 23 24 25
21 26 27 28
22 27 25 29
23 27 29 28
24 28 29 30
25 25 27 31
26 27 26 32
27 27 32 31
28 31 32 33
29 34 35 37
30 35 36 38
31 35 38 37
32 37 38 39
33 40 41 43
34 41 42 44
35 41 44 43
36 43 44 45
37 6 46 47
38 46 36 35
39 46 35 47
40 47 35 34
41 48 49 51
42 49 50 52
43 49 52 51
44 51 52 53
45 3 54 5
46 54 36 46
47 54 46 5
48 5 46 6
49 36 55 38
50 55 56 57
51 55 57 38
52 38 57 39
53 58 59 60
54 59 45 44
55 59 44 60
56 60 44 42
57 61 62 63
58 62 56 55
59 62 55 63
60 63 55 36
61 64 65 66
62 65 48 67
63 65 67 66
64 66 67 68
65 34 69 47
66 69 16 19
67 69 19 47
68 47 19 6
69 42 70 71
70 70 68 67
71 70 67 71
72 71 67 48
73 3 72 54
74 72 61 63
75 72 63 54
76 54 63 36
77 40 73 41
78 73 68 70
79 73 70 41
80 41 70 42
81 74 75 76
82 75 50 77
83 75 77 76
84 76 77 78
85 79 80 82
86 80 81 83
87 80 83 82
88 82 83 84
89 85 86 87
90 86 79 82
91 86 82 87
92 87 82 84
93 25 31 23
94 31 33 88
95 31 88 23
96 23 88 21
97 89 90 91
98 90 9 8
99 90 8 91
100 91 8 7
101 78 77 92
102 77 50 93
103 77 93 92
104 92 93 64
105 94 95 96
106 95 7 97
107 95 97 96
108 96 97 98
109 81 99 100
110 99 98 101
111 99 101 100
112 100 101 102
113 33 103 104
114 103 9 90
115 103 90 104
116 104 90 89
117 81 80 99
118 80 79 105
119 80 105 99
120 99 105 98
121 106 107 108
122 107 79 86
123 107 86 108
124 108 86 85
125 58 60 109
126 60 42 110
127 60 110 109
128 109 110 111
129 112 113 114
130 113 45 59
131 113 59 114
132 114 59 58
133 21 88 115
134 88 33 104
135 88 104 115
136 115 104 89
137 45 113 116
138 113 112 117
139 113 117 116
140 116 117 118
141 48 119 71
142 119 111 110
143 119 110 71
144 71 110 42
145 118 120 122
146 120 121 123
147 120 123 122
148 122 123 124
149 79 125 105
150 125 94 96
151 125 96 105
152 105 96 98
153 1 4 126
154 4 6 20
155 4 20 126
156 126 20 18
157 121 127 128
158 127 85 87
159 127 87 128
160 128 87 84
161 74 129 130
162 129 39 57
163 129 57 130
164 130 57 56
165 131 132 133
166 132 14 13
167 132 13 133
168 133 13 9
169 131 134 135
170 134 33 32
171 134 32 135
172 135 32 26
173 56 62 136
174 62 61 137
175 62 137 136
176 136 137 53
177 85 138 108
178 138 112 139
179 138 139 108
180 108 139 106
181 9 103 133
182 103 33 134
183 103 134 133
184 133 134 131
185 94 125 140
186 125 79 107
187 125 107 140
188 140 107 106
189 85 141 138
190 141 118 117
191 141 117 138
192 138 117 112
193 30 142 143
194 142 18 17
195 142 17 143
196 143 17 16
197 25 24 144
198 24 1 126
199 24 126 144
200 144 126 18
201 25 144 29
202 144 18 142
203 144 142 29
204 29 142 30
205 53 145 51
206 145 111 119
207 145 119 51
208 51 119 48
209 50 49 93
210 49 48 65
211 49 65 93
212 93 65 64
213 56 146 130
214 146 50 75
215 146 75 130
216 130 75 74
217 53 52 136
218 52 50 146
219 52 146 136
220 136 146 56
221 102 147 148
222 147 12 15
223 147 15 148
224 148 15 14
225 98 97 149
226 97 7 10
227 97 10 149
228 149 10 12
229 98 149 101
230 149 12 147
231 149 147 101
232 101 147 102
233 118 141 120
234 141 85 127
235 141 127 120
236 120 127 121
237 150 151 152
238 151 118 122
239 151 122 152
240 152 122 124
241 45 153 43
242 153 150 154
243 153 154 43
244 43 154 40
245 118 151 116
246 151 150 153
247 151 153 116
248 116 153 45
