154 2 0 1
1 -0.499999999999999 -0.866025403784439 2
2 -0.683012701892219 -0.683012701892220 2
3 -0.866025403784438 -0.500000000000000 2
4 -0.807311355868860 -0.881474173314137 0
5 -0.990324057761079 -0.698461471421918 0
6 -1.114622711737721 -0.896922942843835 0
7 0.866025403784439 -0.500000000000000 2
8 0.881973601692994 -0.808463326255129 0
9 0.897921799601549 -1.116926652510258 0
10 1.079809583400279 -0.559653066893391 0
11 1.095757781308834 -0.868116393148520 0
12 1.293593763016119 -0.619306133786782 0
13 1.314986303585213 -1.058463326255130 0
14 1.732050807568877 -1.000000000000001 1
15 1.512822285292498 -0.809653066893391 0
16 -1.000000000000001 -1.732050807568877 1
17 -0.809388113704549 -1.512707416765361 0
18 -0.618776227409098 -1.293364025961845 0
19 -1.057311355868861 -1.314486875206356 0
20 -0.866699469573409 -1.095143484402840 0
21 0.000000000000000 -1.000000000000000 2
22 -0.250000000000000 -0.933012701892220 2
23 -0.113941312411787 -1.195947823394373 0
24 -0.363941312411787 -1.128960525286592 0
25 -0.227882624823574 -1.391895646788745 0
26 -0.000000000000000 -2.000000000000000 1
27 -0.113941312411787 -1.695947823394373 0
28 -0.250000000000000 -1.933012701892219 1
29 -0.363941312411787 -1.628960525286592 0
30 -0.500000000000001 -1.866025403784438 1
31 0.078027890937200 -1.365782699884996 0
32 0.191969203348987 -1.669834876490624 0
33 0.383938406697975 -1.339669752981248 0
34 -1.732050807568878 -1.000000000000000 1
35 -1.504422285324453 -0.763661523712822 0
36 -1.276793763080028 -0.527323047425644 0
37 -1.866025403784439 -0.500000000000000 1
38 -1.638396881540014 -0.263661523712822 0
39 -2.000000000000000 0.000000000000000 1
40 0.000000000000000 2.000000000000000 1
41 -0.127281770277928 1.661931259279957 0
42 -0.254563540555855 1.323862518559915 0
43 0.127581644446309 1.717546638224810 0
44 0.000299874168382 1.379477897504767 0
45 0.255163288892619 1.435093276449620 0
46 -1.195708237408874 -0.712122995134740 0
47 -1.423336759653299 -0.948461471421918 0
48 -0.978574002098554 1.145869218223303 0
49 -1.172299702941496 0.978728529074310 0
50 -1.366025403784439 0.811587839925317 0
51 -0.922299702941497 0.822934609111651 0
52 -1.116025403784439 0.655793919962659 0
53 -0.866025403784439 0.500000000000000 2
54 -1.071409583432233 -0.513661523712822 0
55 -1.348457175767238 -0.180904404985994 0
56 -1.420120588454449 0.165514237453656 0
57 -1.710060294227224 0.082757118726828 0
58 0.000000000000000 1.000000000000000 2
59 0.127581644446309 1.217546638224810 0
60 -0.127281770277928 1.161931259279957 0
61 -1.000000000000000 0.000000000000000 2
62 -1.210060294227224 0.082757118726828 0
63 -1.138396881540014 -0.263661523712822 0
64 -1.366025403784438 1.366025403784439 1
65 -1.172299702941496 1.255947311003871 0
66 -1.183012701892219 1.549038105676658 1
67 -0.989287001049277 1.438960012896090 0
68 -1.000000000000000 1.732050807568878 1
69 -1.366025403784439 -1.366025403784438 1
70 -0.627281770277927 1.527956663064396 0
71 -0.616568771327205 1.234865868391609 0
72 -0.933012701892219 -0.250000000000000 2
73 -0.500000000000000 1.866025403784439 1
74 -1.866025403784439 0.500000000000000 1
75 -1.616025403784439 0.655793919962659 0
76 -1.799038105676658 0.750000000000000 1
77 -1.549038105676658 0.905793919962659 0
78 -1.732050807568877 1.000000000000000 1
79 1.344928455411291 0.393833678363914 0
80 1.672464227705645 0.196916839181957 0
81 2.000000000000000 0.000000000000000 1
82 1.538489631490084 0.696916839181957 0
83 1.866025403784439 0.500000000000000 1
84 1.732050807568877 1.000000000000000 1
85 1.122069704117028 0.938825201867003 0
86 1.233499079764159 0.666329440115459 0
87 1.427060255842953 0.969412600933502 0
88 0.191969203348987 -1.169834876490624 0
89 0.500000000000000 -0.866025403784438 2
90 0.698960899800775 -0.991476028147348 0
91 0.683012701892220 -0.683012701892219 2
92 -1.549038105676658 1.183012701892219 1
93 -1.366025403784438 1.088806621854878 0
94 1.000000000000000 0.000000000000000 2
95 0.933012701892219 -0.250000000000000 2
96 1.195947823394373 -0.113941312411787 0
97 1.128960525286592 -0.363941312411787 0
98 1.391895646788745 -0.227882624823574 0
99 1.695947823394373 -0.113941312411787 0
100 1.933012701892219 -0.250000000000000 1
101 1.628960525286592 -0.363941312411787 0
102 1.866025403784438 -0.500000000000000 1
103 0.640930103149762 -1.228298202745753 0
104 0.441969203348987 -1.102847578382843 0
105 1.368412051100018 0.082975526770170 0
106 0.866025403784438 0.500000000000000 2
107 1.105476929597865 0.446916839181957 0
108 0.994047553950733 0.719412600933502 0
109 -0.250000000000000 0.933012701892219 2
110 -0.377281770277928 1.094943961172177 0
111 -0.500000000000000 0.866025403784439 2
112 0.500000000000000 0.866025403784439 2
113 0.377581644446309 1.150559340117029 0
114 0.250000000000000 0.933012701892219 2
115 0.250000000000000 -0.933012701892219 2
116 0.529834843521648 1.400559340117029 0
117 0.652253199075339 1.116025403784439 0
118 0.804506398150677 1.366025403784439 0
119 -0.739287001049277 1.005947311003871 0
120 1.085265900967558 1.366025403784439 0
121 1.366025403784439 1.366025403784439 1
122 0.902253199075339 1.549038105676658 0
123 1.183012701892220 1.549038105676658 1
124 1.000000000000000 1.732050807568877 1
125 1.172464227705645 0.196916839181957 0
126 -0.559388113704549 -1.079694714873142 0
127 1.244047553950733 1.152425302825721 0
128 1.549038105676658 1.183012701892219 1
129 -1.933012701892219 0.250000000000000 1
130 -1.643072996119443 0.332757118726828 0
131 1.000000000000000 -1.732050807568877 1
132 1.366025403784438 -1.366025403784439 1
133 0.948960899800775 -1.424488730039568 0
134 0.691969203348987 -1.535860280275062 0
135 0.500000000000000 -1.866025403784439 1
136 -1.143072996119444 0.332757118726828 0
137 -0.933012701892219 0.250000000000000 2
138 0.811034852058514 0.902425302825721 0
139 0.683012701892219 0.683012701892219 2
140 0.933012701892219 0.250000000000000 2
141 0.963288051133853 1.152425302825721 0
142 -0.559388113704549 -1.579694714873142 0
143 -0.750000000000001 -1.799038105676658 1
144 -0.423329426116336 -1.342629836375295 0
145 -0.683012701892219 0.683012701892219 2
146 -1.393072996119443 0.488551038689487 0
147 1.579809583400279 -0.559653066893391 0
148 1.799038105676658 -0.750000000000001 1
149 1.342744704902432 -0.423594379305178 0
150 0.500000000000000 1.866025403784439 1
151 0.652253199075339 1.616025403784439 0
152 0.750000000000000 1.799038105676658 1
153 0.377581644446309 1.650559340117029 0
154 0.250000000000000 1.933012701892219 1
