336 3 0
1 1 2 4
2 2 3 5
3 2 5 4
4 4 5 6
5 7 8 10
6 8 9 11
7 8 11 10
8 10 11 3
9 12 13 15
10 13 14 16
11 13 16 15
12 15 16 17
13 18 19 21
14 19 20 22
15 19 22 21
16 21 22 23
17 24 25 26
18 25 23 22
19 25 22 26
20 26 22 20
21 27 28 30
22 28 29 31
23 28 31 30
24 30 31 32
25 33 34 36
26 34 35 37
27 34 37 36
28 36 37 38
29 6 39 41
30 39 40 42
31 39 42 41
32 41 42 20
33 43 44 46
34 44 45 47
35 44 47 46
36 46 47 48
37 27 49 51
38 49 50 52
39 49 52 51
40 51 52 53
41 54 55 57
42 55 56 58
43 55 58 57
44 57 58 59
45 60 61 63
46 61 62 64
47 61 64 63
48 63 64 33
49 65 66 67
50 66 38 37
51 66 37 67
52 67 37 35
53 24 68 25
54 68 69 70
55 68 70 25
56 25 70 23
57 71 72 74
58 72 73 75
59 72 75 74
60 74 75 76
61 6 77 39
62 77 78 79
63 77 79 39
64 39 79 40
65 65 80 81
66 80 78 77
67 80 77 81
68 81 77 6
69 65 81 66
70 81 6 82
71 81 82 66
72 66 82 38
73 54 57 83
74 57 59 84
75 57 84 83
76 83 84 12
77 85 86 87
78 86 54 88
79 86 88 87
80 87 88 89
81 62 90 64
82 90 12 91
83 90 91 64
84 64 91 33
85 33 36 63
86 36 38 92
87 36 92 63
88 63 92 60
89 9 93 94
90 93 60 92
91 93 92 94
92 94 92 38
93 95 96 97
94 96 7 98
95 96 98 97
96 97 98 1
97 69 99 101
98 99 100 102
99 99 102 101
100 101 102 103
101 95 104 106
102 104 105 107
103 104 107 106
104 106 107 108
105 109 110 112
106 110 111 113
107 110 113 112
108 112 113 114
109 32 115 116
110 115 18 117
111 115 117 116
112 116 117 103
113 118 119 121
114 119 120 122
115 119 122 121
116 121 122 123
117 9 8 124
118 8 7 125
119 8 125 124
120 124 125 126
121 127 128 130
122 128 129 131
123 128 131 130
124 130 131 132
125 20 133 41
126 133 1 4
127 133 4 41
128 41 4 6
129 105 134 107
130 134 114 135
131 134 135 107
132 107 135 108
133 43 136 138
134 136 137 139
135 136 139 138
136 138 139 140
137 20 42 26
138 42 40 141
139 42 141 26
140 26 141 24
141 142 143 144
142 143 137 145
143 143 145 144
144 144 145 129
145 103 146 116
146 146 27 30
147 146 30 116
148 116 30 32
149 142 147 149
150 147 148 150
151 147 150 149
152 149 150 140
153 76 75 151
154 75 73 152
155 75 152 151
156 151 152 153
157 154 155 156
158 155 76 157
159 155 157 156
160 156 157 123
161 85 158 86
162 158 56 55
163 158 55 86
164 86 55 54
165 118 159 160
166 159 76 161
167 159 161 160
168 160 161 162
169 154 163 155
170 163 71 74
171 163 74 155
172 155 74 76
173 89 164 165
174 164 153 152
175 164 152 165
176 165 152 73
177 100 166 167
178 166 50 49
179 166 49 167
180 167 49 27
181 140 168 138
182 168 169 170
183 168 170 138
184 138 170 43
185 171 172 173
186 172 85 174
187 172 174 173
188 173 174 73
189 73 72 173
190 72 71 175
191 72 175 173
192 173 175 171
193 12 84 13
194 84 59 176
195 84 176 13
196 13 176 14
197 27 146 167
198 146 103 102
199 146 102 167
200 167 102 100
201 12 90 83
202 90 62 177
203 90 177 83
204 83 177 54
205 153 178 151
206 178 162 161
207 178 161 151
208 151 161 76
209 62 179 177
210 179 89 88
211 179 88 177
212 177 88 54
213 118 121 159
214 121 123 157
215 121 157 159
216 159 157 76
217 12 15 91
218 15 17 180
219 15 180 91
220 91 180 33
221 89 165 87
222 165 73 174
223 165 174 87
224 87 174 85
225 7 96 181
226 96 95 106
227 96 106 181
228 181 106 108
229 1 98 2
230 98 7 10
231 98 10 2
232 2 10 3
233 3 11 182
234 11 9 94
235 11 94 182
236 182 94 38
237 3 182 5
238 182 38 82
239 182 82 5
240 5 82 6
241 7 181 125
242 181 108 183
243 181 183 125
244 125 183 126
245 111 184 185
246 184 126 183
247 184 183 185
248 185 183 108
249 108 135 185
250 135 114 113
251 135 113 185
252 185 113 111
253 186 187 188
254 187 48 47
255 187 47 188
256 188 47 45
257 114 189 190
258 189 186 188
259 189 188 190
260 190 188 45
261 105 191 134
262 191 186 189
263 191 189 134
264 134 189 114
265 114 190 112
266 190 45 192
267 190 192 112
268 112 192 109
269 193 194 195
270 194 109 192
271 194 192 195
272 195 192 45
273 43 170 196
274 170 169 197
275 170 197 196
276 196 197 193
277 148 198 150
278 198 169 168
279 198 168 150
280 150 168 140
281 48 199 46
282 199 137 136
283 199 136 46
284 46 136 43
285 45 44 195
286 44 43 196
287 44 196 195
288 195 196 193
289 48 200 199
290 200 132 201
291 200 201 199
292 199 201 137
293 132 200 202
294 200 48 203
295 200 203 202
296 202 203 29
297 142 149 143
298 149 140 139
299 149 139 143
300 143 139 137
301 33 180 34
302 180 17 204
303 180 204 34
304 34 204 35
305 18 205 19
306 205 1 133
307 205 133 19
308 19 133 20
309 129 145 131
310 145 137 201
311 145 201 131
312 131 201 132
313 27 51 28
314 51 53 206
315 51 206 28
316 28 206 29
317 53 207 208
318 207 127 130
319 207 130 208
320 208 130 132
321 127 207 209
322 207 53 52
323 207 52 209
324 209 52 50
325 132 202 208
326 202 29 206
327 202 206 208
328 208 206 53
329 23 210 21
330 210 103 117
331 210 117 21
332 21 117 18
333 103 210 101
334 210 23 70
335 210 70 101
336 101 70 69
