336 3 0
1 229 3 126
2 232 237 3
3 2 4 1
4 3 240 128
5 118 7 230
6 117 234 7
7 6 8 5
8 7 233 232
9 193 11 217
10 196 0 11
11 10 12 9
12 11 0 218
13 305 15 332
14 308 20 15
15 14 16 13
16 15 18 329
17 53 19 140
18 56 16 19
19 18 20 17
20 19 14 137
21 313 23 146
22 316 0 23
23 22 24 21
24 23 0 148
25 301 27 85
26 304 52 27
27 26 28 25
28 27 50 86
29 61 31 128
30 64 138 31
31 30 32 29
32 31 137 125
33 286 35 284
34 285 256 35
35 34 36 33
36 35 254 281
37 180 39 313
38 178 324 39
39 38 40 37
40 39 322 314
41 164 43 73
42 162 0 43
43 42 44 41
44 43 0 74
45 0 47 88
46 0 81 47
47 46 48 45
48 47 84 85
49 69 51 0
50 72 28 51
51 50 52 49
52 51 26 0
53 0 55 17
54 0 336 55
55 54 56 53
56 55 334 18
57 190 59 170
58 189 154 59
59 58 60 57
60 59 153 172
61 68 63 29
62 66 0 63
63 62 64 61
64 63 0 30
65 0 67 69
66 0 62 67
67 66 68 65
68 67 61 70
69 65 71 49
70 68 240 71
71 70 72 69
72 71 238 50
73 41 75 204
74 44 194 75
75 74 76 73
76 75 193 201
77 161 79 224
78 164 212 79
79 78 80 77
80 79 210 221
81 202 83 46
82 201 217 83
83 82 84 81
84 83 220 48
85 25 87 48
86 28 92 87
87 86 88 85
88 87 90 45
89 0 91 234
90 0 88 91
91 90 92 89
92 91 86 236
93 226 95 0
94 225 230 95
95 94 96 93
96 95 229 0
97 0 99 336
98 0 200 99
99 98 100 97
100 99 198 333
101 0 103 226
102 0 129 103
103 102 104 101
104 103 132 228
105 0 107 268
106 0 252 107
107 106 108 105
108 107 250 265
109 0 111 148
110 0 332 111
111 110 112 109
112 111 330 145
113 0 115 213
114 0 0 115
115 114 116 113
116 115 0 214
117 6 119 0
118 5 241 119
119 118 120 117
120 119 244 0
121 0 123 318
122 0 309 123
123 122 124 121
124 123 312 320
125 308 127 32
126 306 1 127
127 126 128 125
128 127 4 29
129 261 131 102
130 264 250 131
131 130 132 129
132 131 249 104
133 284 135 184
134 282 300 135
135 134 136 133
136 135 298 181
137 32 139 20
138 30 0 139
139 138 140 137
140 139 0 17
141 297 143 0
142 300 310 143
143 142 144 141
144 143 309 0
145 198 147 112
146 197 21 147
147 146 148 145
148 147 24 109
149 0 151 297
150 0 277 151
151 150 152 149
152 151 280 298
153 60 155 208
154 58 176 155
155 154 156 153
156 155 174 205
157 169 159 0
158 172 216 159
159 158 160 157
160 159 214 0
161 0 163 77
162 0 42 163
163 162 164 161
164 163 41 78
165 213 167 0
166 216 208 167
167 166 168 165
168 167 206 0
169 0 171 157
170 0 57 171
171 170 172 169
172 171 60 158
173 0 175 221
174 0 156 175
175 174 176 173
176 175 154 222
177 0 179 200
178 0 38 179
179 178 180 177
180 179 37 197
181 280 183 136
182 278 274 183
183 182 184 181
184 183 273 133
185 0 187 192
186 0 224 187
187 186 188 185
188 187 222 189
189 58 191 188
190 57 0 191
191 190 192 189
192 191 0 185
193 76 195 9
194 74 0 195
195 194 196 193
196 195 0 10
197 146 199 180
198 145 100 199
199 198 200 197
200 199 98 177
201 82 203 76
202 81 209 203
203 202 204 201
204 203 212 73
205 0 207 156
206 0 168 207
207 206 208 205
208 207 166 153
209 0 211 202
210 0 80 211
211 210 212 209
212 211 78 204
213 113 215 165
214 116 160 215
215 214 216 213
216 215 158 166
217 9 219 82
218 12 302 219
219 218 220 217
220 219 301 84
221 173 223 80
222 176 188 223
223 222 224 221
224 223 186 77
225 94 227 241
226 93 101 227
227 226 228 225
228 227 104 242
229 96 231 1
230 94 5 231
231 230 232 229
232 231 8 2
233 8 235 237
234 6 89 235
235 234 236 233
236 235 92 238
237 233 239 2
238 236 72 239
239 238 240 237
240 239 70 4
241 225 243 118
242 228 248 243
243 242 244 241
244 243 246 120
245 0 247 252
246 0 244 247
247 246 248 245
248 247 242 249
249 132 251 248
250 130 108 251
251 250 252 249
252 251 106 245
253 0 255 258
254 0 36 255
255 254 256 253
256 255 34 260
257 264 259 265
258 262 253 259
259 258 260 257
260 259 256 266
261 0 263 129
262 0 258 263
263 262 264 261
264 263 257 130
265 257 267 108
266 260 272 267
267 266 268 265
268 267 270 105
269 0 271 288
270 0 268 271
271 270 272 269
272 271 266 285
273 184 275 286
274 182 0 275
275 274 276 273
276 275 0 288
277 0 279 150
278 0 182 279
279 278 280 277
280 279 181 152
281 289 283 36
282 292 134 283
283 282 284 281
284 283 133 33
285 34 287 272
286 33 273 287
287 286 288 285
288 287 276 269
289 294 291 281
290 293 312 291
291 290 292 289
292 291 310 282
293 290 295 325
294 289 0 295
295 294 296 293
296 295 0 326
297 149 299 141
298 152 136 299
299 298 300 297
300 299 134 142
301 220 303 25
302 218 0 303
303 302 304 301
304 303 0 26
305 0 307 13
306 0 126 307
307 306 308 305
308 307 125 14
309 144 311 122
310 142 292 311
311 310 312 309
312 311 290 124
313 37 315 21
314 40 328 315
315 314 316 313
316 315 326 22
317 322 319 328
318 321 121 319
319 318 320 317
320 319 124 325
321 318 323 0
322 317 40 323
323 322 324 321
324 323 38 0
325 293 327 320
326 296 316 327
327 326 328 325
328 327 314 317
329 334 331 16
330 333 112 331
331 330 332 329
332 331 110 13
333 330 335 100
334 329 56 335
335 334 336 333
336 335 54 97
