210 2 0 1
1 258.000000000000000 443.000000000000000 2
2 246.744020830657007 467.500000000000000 0
3 235.488041661313986 492.000000000000000 0
4 218.227451209695460 451.754558263826311 0
5 206.971472040352438 476.254558263826311 0
6 178.454902419390891 460.509116527652623 0
7 270.797129998715320 482.199999999999989 0
8 264.398564999357632 511.600000000000023 0
9 258.000000000000000 541.000000000000000 1
10 253.142585830014639 487.100000000000023 0
11 246.744020830657007 516.500000000000000 0
12 255.056681905633553 716.445910416055654 0
13 228.528340952816791 742.222955208027770 0
14 202.000000000000000 768.000000000000000 1
15 206.028340952816791 709.972955208027770 0
16 179.500000000000000 735.750000000000000 1
17 157.000000000000000 703.500000000000000 1
18 309.000000000000000 338.000000000000000 2
19 264.808747579083274 348.978534538411850 0
20 220.617495158166548 359.957069076823757 0
21 287.209123449189178 313.928603889606165 0
22 243.017871028272481 324.907138428018072 0
23 265.418246898378413 289.857207779212388 0
24 148.000000000000000 305.000000000000000 1
25 206.709123449189207 297.428603889606165 0
26 184.308747579083274 332.478534538411850 0
27 422.480449632352986 260.290587500000015 0
28 444.740224816176465 299.145293750000008 0
29 467.000000000000000 338.000000000000000 2
30 405.240224816176465 282.645293750000008 0
31 427.500000000000000 321.500000000000000 2
32 388.000000000000000 305.000000000000000 2
33 213.781717792979151 651.246269940113962 0
34 162.890858896489590 645.123134970056981 0
35 112.000000000000000 639.000000000000000 1
36 202.714008604736307 605.271656398330492 0
37 151.823149708246746 599.148521428273511 0
38 191.646299416493491 559.297042856547023 0
39 152.727451209695460 417.254558263826311 0
40 127.000000000000000 374.000000000000000 1
41 199.536198788778734 410.233092802238161 0
42 173.808747579083274 366.978534538411850 0
43 554.382142079079131 492.000000000000000 0
44 509.519425001820082 491.965688923005814 0
45 464.656707924561033 491.931377846011685 0
46 536.191071039539565 467.500000000000000 0
47 491.328353962280516 467.465688923005814 0
48 518.000000000000000 443.000000000000000 2
49 473.240224816176465 232.645293750000008 0
50 524.000000000000000 205.000000000000000 1
51 466.659855732338599 271.405925880105258 0
52 517.419630916162077 243.760632130105250 0
53 510.839261832324212 282.521264260210501 0
54 325.335461641462928 739.548480976660471 0
55 326.167730820731435 778.274240488330179 0
56 327.000000000000000 817.000000000000000 1
57 294.917730820731435 766.024240488330179 0
58 295.750000000000000 804.750000000000000 1
59 264.500000000000000 792.500000000000000 1
60 262.000000000000000 591.000000000000000 1
61 279.000000000000000 622.500000000000000 1
62 296.000000000000000 654.000000000000000 1
63 237.890858896489590 621.123134970056981 0
64 254.890858896489590 652.623134970056981 0
65 100.000000000000000 541.000000000000000 1
66 145.823149708246746 550.148521428273511 0
67 106.000000000000000 590.000000000000000 1
68 200.000000000000000 255.000000000000000 1
69 252.000000000000000 205.000000000000000 1
70 258.709123449189178 247.428603889606194 0
71 539.500000000000000 778.000000000000000 1
72 500.722299615713268 762.047470904779857 0
73 461.944599231426480 746.094941809559600 0
74 538.283780048427843 738.940198140765915 0
75 499.506079664141112 722.987669045545658 0
76 537.067560096855800 699.880396281531716 0
77 142.227451209695460 451.754558263826311 0
78 106.000000000000000 443.000000000000000 1
79 116.500000000000000 408.500000000000000 1
80 103.000000000000000 492.000000000000000 1
81 139.227451209695460 500.754558263826311 0
82 185.050600917942177 509.903079692099823 0
83 290.196071773548226 727.997195696358062 0
84 259.778340952816791 754.472955208027770 0
85 404.000000000000000 814.000000000000000 1
86 364.667730820731435 776.774240488330179 0
87 396.000000000000000 754.000000000000000 0
88 356.667730820731435 716.774240488330179 0
89 388.000000000000000 694.000000000000000 1
90 275.528340952816791 685.222955208027770 0
91 234.419199849306352 683.846090178084751 0
92 226.823149708246746 575.148521428273511 0
93 260.000000000000000 566.000000000000000 1
94 224.823149708246746 550.148521428273511 0
95 323.000000000000000 443.000000000000000 2
96 296.898564999357632 462.600000000000023 0
97 290.500000000000000 443.000000000000000 2
98 264.398564999357632 462.600000000000023 0
99 320.000000000000000 192.500000000000000 1
100 388.000000000000000 180.000000000000000 1
101 305.690404411764689 230.163749999999993 0
102 373.690404411764689 217.663749999999993 0
103 359.380808823529378 255.327500000000015 0
104 355.500000000000000 443.000000000000000 2
105 388.000000000000000 443.000000000000000 2
106 329.590187270929107 466.288506826330547 0
107 362.090187270929107 466.288506826330547 0
108 336.180374541858214 489.577013652661094 0
109 453.000000000000000 541.000000000000000 1
110 420.500000000000000 541.000000000000000 1
111 388.000000000000000 541.000000000000000 1
112 426.385381510429909 516.292360703825580 0
113 393.885381510429909 516.292360703825580 0
114 399.770763020859818 491.584721407651216 0
115 348.500000000000000 321.500000000000000 2
116 373.690404411764689 280.163749999999993 0
117 334.190404411764689 296.663749999999993 0
118 602.001161239986686 625.614464826746939 1
119 634.000580619993343 625.807232413373413 1
120 666.000000000000000 626.000000000000000 1
121 618.124134592574592 653.591012961356228 0
122 650.123553972581249 653.783780547982701 1
123 634.247107945162611 681.567561095965402 1
124 290.500000000000000 541.000000000000000 1
125 296.898564999357632 511.600000000000023 0
126 323.000000000000000 541.000000000000000 1
127 576.000000000000000 255.000000000000000 1
128 602.000000000000000 280.000000000000000 1
129 628.000000000000000 305.000000000000000 1
130 560.427871006415444 291.085999273485413 0
131 586.427871006415444 316.085999273485413 0
132 544.855742012831001 327.171998546970826 0
133 239.308747579083274 401.478534538411850 0
134 393.885381510429909 467.292360703825580 0
135 367.975568781359016 490.580867530156183 0
136 572.086972696797261 454.882614795857535 0
137 589.791803314515391 417.765229591715126 0
138 583.762608786936312 483.756624381112374 0
139 601.467439404654442 446.639239176969909 0
140 613.143075494793493 475.513248762224691 0
141 137.500000000000000 339.500000000000000 1
142 670.000000000000000 443.000000000000000 1
143 629.895901657257696 430.382614795857535 0
144 649.000000000000000 374.000000000000000 1
145 608.895901657257696 361.382614795857535 0
146 390.930629227941154 257.809043750000001 0
147 673.000000000000000 492.000000000000000 1
148 676.000000000000000 541.000000000000000 1
149 641.571537747396746 459.256624381112374 0
150 644.571537747396746 508.256624381112374 0
151 503.533780048427900 684.440198140765915 0
152 465.972299615713268 707.547470904779857 0
153 470.000000000000000 669.000000000000000 1
154 598.000000000000000 745.000000000000000 1
155 567.533780048427843 722.440198140765915 0
156 616.123553972581249 713.283780547982701 1
157 585.657334021009206 690.723978688748502 0
158 365.500000000000000 815.500000000000000 1
159 569.534360668421186 662.747430554139328 0
160 551.000580619993343 625.307232413373413 1
161 518.533780048427843 662.440198140765915 0
162 500.000000000000000 625.000000000000000 1
163 568.750000000000000 761.500000000000000 1
164 429.000000000000000 681.500000000000000 1
165 424.972299615713268 720.047470904779857 0
166 456.000000000000000 192.500000000000000 1
167 405.240224816176465 220.145293750000008 0
168 612.571537747396746 508.256624381112374 0
169 612.000000000000000 541.000000000000000 1
170 583.191071039539565 516.500000000000000 0
171 481.000000000000000 811.000000000000000 1
172 442.500000000000000 812.500000000000000 1
173 471.472299615713268 778.547470904779857 0
174 432.972299615713268 780.047470904779857 0
175 510.250000000000000 794.500000000000000 1
176 233.250000000000000 780.250000000000000 1
177 310.667730820731435 696.774240488330179 0
178 485.000000000000000 647.000000000000000 1
179 342.000000000000000 674.000000000000000 1
180 185.390858896489590 677.373134970056981 0
181 303.488752270286795 485.888506826330513 0
182 213.567170538903724 525.648521428273511 0
183 329.590187270929107 515.288506826330604 0
184 355.500000000000000 541.000000000000000 1
185 362.090187270929107 515.288506826330604 0
186 453.000000000000000 443.000000000000000 2
187 485.500000000000000 443.000000000000000 2
188 458.828353962280516 467.465688923005814 0
189 426.385381510429909 467.292360703825580 0
190 432.213735472710425 491.758049626831450 0
191 420.500000000000000 443.000000000000000 2
192 458.828353962280516 516.465688923005814 0
193 518.000000000000000 541.000000000000000 1
194 485.500000000000000 541.000000000000000 1
195 491.328353962280516 516.465688923005814 0
196 536.191071039539565 516.500000000000000 0
197 565.000000000000000 541.000000000000000 1
198 644.000000000000000 541.000000000000000 1
199 553.895901657257696 430.382614795857535 0
200 531.427871006415444 385.085999273485413 0
201 567.323772663673253 372.468614069342948 0
202 505.927871006415501 332.585999273485413 0
203 492.500000000000000 390.500000000000000 2
204 134.500000000000000 671.250000000000000 1
205 283.500000000000000 390.500000000000000 2
206 488.919630916162077 310.260632130105250 0
207 543.419630916162077 268.760632130105250 0
208 527.847501922577635 304.846631403590663 0
209 550.000000000000000 230.000000000000000 1
210 312.399527860953867 272.592353889606215 0
