29 2 0 1
1 258.0 541.0 1
2 388.0 541.0 1
3 518.0 541.0 1
4 676.0 541.0 1
5 670.0 443.0 1
6 628.0 305.0 1
7 524.0 205.0 1
8 388.0 180.0 1
9 252.0 205.0 1
10 148.0 305.0 1
11 106.0 443.0 1
12 100.0 541.0 1
13 112.0 639.0 1
14 202.0 768.0 1
15 327.0 817.0 1
16 481.0 811.0 1
17 598.0 745.0 1
18 666.0 626.0 1
19 500.0 625.0 1
20 470.0 669.0 1
21 388.0 694.0 1
22 296.0 654.0 1
23 262.0 591.0 1
24 258.0 443.0 2
25 388.0 443.0 2
26 518.0 443.0 2
27 467.0 338.0 2
28 388.0 305.0 2
29 309.0 338.0 2
29 1
1 1 2 1
2 2 3 1
3 3 4 1
4 4 5 1
5 5 6 1
6 6 7 1
7 7 8 1
8 8 9 1
9 9 10 1
10 10 11 1
11 11 12 1
12 12 13 1
13 13 14 1
14 14 15 1
15 15 16 1
16 16 17 1
17 17 18 1
18 18 19 1
19 19 20 1
20 20 21 1
21 21 22 1
22 22 23 1
23 23 1 1
24 24 25 2
25 25 26 2
26 26 27 2
27 27 28 2
28 28 29 2
29 29 24 2
1
0 388.0 338.0
