450 3 0
1 228 4 390
2 227 5 4
3 226 0 5
4 2 6 1
5 3 7 2
6 4 8 394
7 5 0 8
8 7 9 6
9 8 0 396
10 90 13 163
11 88 14 13
12 84 198 14
13 11 15 10
14 12 16 11
15 13 17 164
16 14 196 17
17 16 18 15
18 17 192 165
19 0 22 55
20 0 23 22
21 0 442 23
22 20 24 19
23 21 25 20
24 22 26 56
25 23 447 26
26 25 27 24
27 26 450 57
28 0 31 181
29 0 32 31
30 0 55 32
31 29 33 28
32 30 34 29
33 31 35 182
34 32 60 35
35 34 36 33
36 35 63 183
37 0 40 136
38 0 41 40
39 0 226 41
40 38 42 37
41 39 43 38
42 40 44 137
43 41 231 44
44 43 45 42
45 44 234 138
46 408 49 0
47 407 50 49
48 406 126 50
49 47 51 46
50 48 52 47
51 49 53 0
52 50 124 53
53 52 54 51
54 53 120 0
55 19 58 30
56 24 59 58
57 27 144 59
58 56 60 55
59 57 61 56
60 58 62 34
61 59 142 62
62 61 63 60
63 62 138 36
64 0 67 399
65 0 68 67
66 0 154 68
67 65 69 64
68 66 70 65
69 67 71 403
70 68 159 71
71 70 72 69
72 71 162 405
73 129 76 405
74 128 77 76
75 127 153 77
76 74 78 73
77 75 79 74
78 76 80 402
79 77 151 80
80 79 81 78
81 80 147 397
82 0 85 154
83 0 86 85
84 0 12 86
85 83 87 82
86 84 88 83
87 85 89 155
88 86 11 89
89 88 90 87
90 89 10 156
91 0 94 171
92 0 95 94
93 0 127 95
94 92 96 91
95 93 97 92
96 94 98 168
97 95 132 98
98 97 99 96
99 98 135 163
100 390 103 288
101 389 104 103
102 388 192 104
103 101 105 100
104 102 106 101
105 103 107 285
106 104 191 107
107 106 108 105
108 107 190 280
109 246 112 235
110 245 113 112
111 244 0 113
112 110 114 109
113 111 115 110
114 112 116 236
115 113 0 116
116 115 117 114
117 116 0 237
118 334 121 432
119 339 122 121
120 342 54 122
121 119 123 118
122 120 124 119
123 121 125 429
124 122 52 125
125 124 126 123
126 125 48 424
127 75 130 93
128 74 131 130
129 73 162 131
130 128 132 127
131 129 133 128
132 130 134 97
133 131 160 134
134 133 135 132
135 134 156 99
136 37 139 199
137 42 140 139
138 45 63 140
139 137 141 136
140 138 142 137
141 139 143 200
142 140 61 143
143 142 144 141
144 143 57 201
145 262 148 0
146 267 149 148
147 270 81 149
148 146 150 145
149 147 151 146
150 148 152 0
151 149 79 152
152 151 153 150
153 152 75 0
154 82 157 66
155 87 158 157
156 90 135 158
157 155 159 154
158 156 160 155
159 157 161 70
160 158 133 161
161 160 162 159
162 161 129 72
163 10 166 99
164 15 167 166
165 18 300 167
166 164 168 163
167 165 169 164
168 166 170 96
169 167 299 170
170 169 171 168
171 170 298 91
172 271 175 0
173 276 176 175
174 279 360 176
175 173 177 172
176 174 178 173
177 175 179 0
178 176 358 179
179 178 180 177
180 179 354 0
181 28 184 282
182 33 185 184
183 36 234 185
184 182 186 181
185 183 187 182
186 184 188 286
187 185 232 188
188 187 189 186
189 188 228 288
190 108 193 0
191 106 194 193
192 102 18 194
193 191 195 190
194 192 196 191
195 193 197 0
196 194 16 197
197 196 198 195
198 197 12 0
199 136 202 433
200 141 203 202
201 144 450 203
202 200 204 199
203 201 205 200
204 202 206 434
205 203 448 206
206 205 207 204
207 206 444 435
208 415 211 217
209 420 212 211
210 423 406 212
211 209 213 208
212 210 214 209
213 211 215 218
214 212 411 215
215 214 216 213
216 215 414 219
217 208 220 252
218 213 221 220
219 216 0 221
220 218 222 217
221 219 223 218
222 220 224 249
223 221 0 224
224 223 225 222
225 224 0 244
226 3 229 39
227 2 230 229
228 1 189 230
229 227 231 226
230 228 232 227
231 229 233 43
232 230 187 233
233 232 234 231
234 233 183 45
235 109 238 0
236 114 239 238
237 117 255 239
238 236 240 235
239 237 241 236
240 238 242 0
241 239 254 242
242 241 243 240
243 242 253 0
244 111 247 225
245 110 248 247
246 109 0 248
247 245 249 244
248 246 250 245
249 247 251 222
250 248 0 251
251 250 252 249
252 251 0 217
253 243 256 369
254 241 257 256
255 237 0 257
256 254 258 253
257 255 259 254
258 256 260 366
259 257 0 260
260 259 261 258
261 260 0 361
262 370 265 145
263 375 266 265
264 378 307 266
265 263 267 262
266 264 268 263
267 265 269 146
268 266 312 269
269 268 270 267
270 269 315 147
271 387 274 172
272 385 275 274
273 381 378 275
274 272 276 271
275 273 277 272
276 274 278 173
277 275 376 278
278 277 279 276
279 278 372 174
280 0 283 108
281 0 284 283
282 0 181 284
283 281 285 280
284 282 286 281
285 283 287 105
286 284 186 287
287 286 288 285
288 287 189 100
289 0 292 379
290 0 293 292
291 0 309 293
292 290 294 289
293 291 295 290
294 292 296 380
295 293 308 296
296 295 297 294
297 296 307 381
298 171 301 0
299 169 302 301
300 165 388 302
301 299 303 298
302 300 304 299
303 301 305 0
304 302 393 305
305 304 306 303
306 305 396 0
307 297 310 264
308 295 311 310
309 291 316 311
310 308 312 307
311 309 313 308
312 310 314 268
313 311 321 314
314 313 315 312
315 314 324 270
316 0 319 309
317 0 320 319
318 0 399 320
319 317 321 316
320 318 322 317
321 319 323 313
322 320 398 323
323 322 324 321
324 323 397 315
325 351 328 352
326 349 329 328
327 345 0 329
328 326 330 325
329 327 331 326
330 328 332 353
331 329 0 332
332 331 333 330
333 332 0 354
334 444 337 118
335 443 338 337
336 442 0 338
337 335 339 334
338 336 340 335
339 337 341 119
340 338 0 341
341 340 342 339
342 341 0 120
343 369 346 0
344 367 347 346
345 363 327 347
346 344 348 343
347 345 349 344
348 346 350 0
349 347 326 350
350 349 351 348
351 350 325 0
352 325 355 0
353 330 356 355
354 333 180 356
355 353 357 352
356 354 358 353
357 355 359 0
358 356 178 359
359 358 360 357
360 359 174 0
361 0 364 261
362 0 365 364
363 0 345 365
364 362 366 361
365 363 367 362
366 364 368 258
367 365 344 368
368 367 369 366
369 368 343 253
370 0 373 262
371 0 374 373
372 0 279 374
373 371 375 370
374 372 376 371
375 373 377 263
376 374 277 377
377 376 378 375
378 377 273 264
379 289 382 0
380 294 383 382
381 297 273 383
382 380 384 379
383 381 385 380
384 382 386 0
385 383 272 386
386 385 387 384
387 386 271 0
388 102 391 300
389 101 392 391
390 100 1 392
391 389 393 388
392 390 394 389
393 391 395 304
394 392 6 395
395 394 396 393
396 395 9 306
397 324 400 81
398 322 401 400
399 318 64 401
400 398 402 397
401 399 403 398
402 400 404 78
403 401 69 404
404 403 405 402
405 404 72 73
406 48 409 210
407 47 410 409
408 46 0 410
409 407 411 406
410 408 412 407
411 409 413 214
412 410 0 413
413 412 414 411
414 413 0 216
415 0 418 208
416 0 419 418
417 0 426 419
418 416 420 415
419 417 421 416
420 418 422 209
421 419 425 422
422 421 423 420
423 422 424 210
424 423 427 126
425 421 428 427
426 417 441 428
427 425 429 424
428 426 430 425
429 427 431 123
430 428 439 431
431 430 432 429
432 431 435 118
433 199 436 0
434 204 437 436
435 207 432 437
436 434 438 433
437 435 439 434
438 436 440 0
439 437 430 440
440 439 441 438
441 440 426 0
442 336 445 21
443 335 446 445
444 334 207 446
445 443 447 442
446 444 448 443
447 445 449 25
448 446 205 449
449 448 450 447
450 449 201 27
