450 3 0
1 1 2 5
2 2 3 6
3 3 4 7
4 2 6 5
5 3 7 6
6 5 6 8
7 6 7 9
8 6 9 8
9 8 9 10
10 11 12 15
11 12 13 16
12 13 14 17
13 12 16 15
14 13 17 16
15 15 16 18
16 16 17 19
17 16 19 18
18 18 19 20
19 21 22 25
20 22 23 26
21 23 24 27
22 22 26 25
23 23 27 26
24 25 26 28
25 26 27 29
26 26 29 28
27 28 29 30
28 31 32 34
29 32 33 35
30 33 21 36
31 32 35 34
32 33 36 35
33 34 35 37
34 35 36 38
35 35 38 37
36 37 38 39
37 40 41 43
38 41 42 44
39 42 4 45
40 41 44 43
41 42 45 44
42 43 44 46
43 44 45 47
44 44 47 46
45 46 47 39
46 48 49 52
47 49 50 53
48 50 51 54
49 49 53 52
50 50 54 53
51 52 53 55
52 53 54 56
53 53 56 55
54 55 56 57
55 21 25 36
56 25 28 58
57 28 30 59
58 25 58 36
59 28 59 58
60 36 58 38
61 58 59 60
62 58 60 38
63 38 60 39
64 61 62 65
65 62 63 66
66 63 64 67
67 62 66 65
68 63 67 66
69 65 66 68
70 66 67 69
71 66 69 68
72 68 69 70
73 70 71 74
74 71 72 75
75 72 73 76
76 71 75 74
77 72 76 75
78 74 75 77
79 75 76 78
80 75 78 77
81 77 78 79
82 64 80 82
83 80 81 83
84 81 14 13
85 80 83 82
86 81 13 83
87 82 83 84
88 83 13 12
89 83 12 84
90 84 12 11
91 85 86 88
92 86 87 89
93 87 73 90
94 86 89 88
95 87 90 89
96 88 89 91
97 89 90 92
98 89 92 91
99 91 92 11
100 1 93 95
101 93 94 96
102 94 20 97
103 93 96 95
104 94 97 96
105 95 96 98
106 96 97 99
107 96 99 98
108 98 99 100
109 101 102 105
110 102 103 106
111 103 104 107
112 102 106 105
113 103 107 106
114 105 106 108
115 106 107 109
116 106 109 108
117 108 109 110
118 111 112 114
119 112 113 115
120 113 57 56
121 112 115 114
122 113 56 115
123 114 115 116
124 115 56 54
125 115 54 116
126 116 54 51
127 73 72 90
128 72 71 117
129 71 70 118
130 72 117 90
131 71 118 117
132 90 117 92
133 117 118 119
134 117 119 92
135 92 119 11
136 40 43 120
137 43 46 121
138 46 39 60
139 43 121 120
140 46 60 121
141 120 121 122
142 121 60 59
143 121 59 122
144 122 59 30
145 123 124 126
146 124 125 127
147 125 79 78
148 124 127 126
149 125 78 127
150 126 127 128
151 127 78 76
152 127 76 128
153 128 76 73
154 64 82 67
155 82 84 129
156 84 11 119
157 82 129 67
158 84 119 129
159 67 129 69
160 129 119 118
161 129 118 69
162 69 118 70
163 11 15 91
164 15 18 130
165 18 20 131
166 15 130 91
167 18 131 130
168 91 130 88
169 130 131 132
170 130 132 88
171 88 132 85
172 133 134 137
173 134 135 138
174 135 136 139
175 134 138 137
176 135 139 138
177 137 138 140
178 138 139 141
179 138 141 140
180 140 141 142
181 31 34 143
182 34 37 144
183 37 39 145
184 34 144 143
185 37 145 144
186 143 144 146
187 144 145 147
188 144 147 146
189 146 147 1
190 100 99 148
191 99 97 149
192 97 20 19
193 99 149 148
194 97 19 149
195 148 149 150
196 149 19 17
197 149 17 150
198 150 17 14
199 40 120 151
200 120 122 152
201 122 30 153
202 120 152 151
203 122 153 152
204 151 152 154
205 152 153 155
206 152 155 154
207 154 155 111
208 156 157 159
209 157 158 160
210 158 51 161
211 157 160 159
212 158 161 160
213 159 160 162
214 160 161 163
215 160 163 162
216 162 163 164
217 156 159 165
218 159 162 166
219 162 164 167
220 159 166 165
221 162 167 166
222 165 166 168
223 166 167 169
224 166 169 168
225 168 169 104
226 4 3 45
227 3 2 170
228 2 1 147
229 3 170 45
230 2 147 170
231 45 170 47
232 170 147 145
233 170 145 47
234 47 145 39
235 101 105 171
236 105 108 172
237 108 110 173
238 105 172 171
239 108 173 172
240 171 172 174
241 172 173 175
242 172 175 174
243 174 175 176
244 104 103 168
245 103 102 177
246 102 101 178
247 103 177 168
248 102 178 177
249 168 177 165
250 177 178 179
251 177 179 165
252 165 179 156
253 176 175 180
254 175 173 181
255 173 110 182
256 175 181 180
257 173 182 181
258 180 181 183
259 181 182 184
260 181 184 183
261 183 184 185
262 123 186 124
263 186 187 189
264 187 188 190
265 186 189 124
266 187 190 189
267 124 189 125
268 189 190 191
269 189 191 125
270 125 191 79
271 133 192 134
272 192 193 194
273 193 188 195
274 192 194 134
275 193 195 194
276 134 194 135
277 194 195 196
278 194 196 135
279 135 196 136
280 100 197 98
281 197 198 199
282 198 31 143
283 197 199 98
284 198 143 199
285 98 199 95
286 199 143 146
287 199 146 95
288 95 146 1
289 200 201 204
290 201 202 205
291 202 203 206
292 201 205 204
293 202 206 205
294 204 205 207
295 205 206 208
296 205 208 207
297 207 208 188
298 85 132 209
299 132 131 210
300 131 20 211
301 132 210 209
302 131 211 210
303 209 210 212
304 210 211 213
305 210 213 212
306 212 213 10
307 188 208 190
308 208 206 214
309 206 203 215
310 208 214 190
311 206 215 214
312 190 214 191
313 214 215 216
314 214 216 191
315 191 216 79
316 203 217 215
317 217 218 219
318 218 61 220
319 217 219 215
320 218 220 219
321 215 219 216
322 219 220 221
323 219 221 216
324 216 221 79
325 222 223 226
326 223 224 227
327 224 225 228
328 223 227 226
329 224 228 227
330 226 227 229
331 227 228 230
332 227 230 229
333 229 230 142
334 111 231 112
335 231 232 233
336 232 24 234
337 231 233 112
338 232 234 233
339 112 233 113
340 233 234 235
341 233 235 113
342 113 235 57
343 176 236 238
344 236 237 239
345 237 225 224
346 236 239 238
347 237 224 239
348 238 239 240
349 239 224 223
350 239 223 240
351 240 223 222
352 222 226 241
353 226 229 242
354 229 142 141
355 226 242 241
356 229 141 242
357 241 242 243
358 242 141 139
359 242 139 243
360 243 139 136
361 185 244 183
362 244 245 246
363 245 225 237
364 244 246 183
365 245 237 246
366 183 246 180
367 246 237 236
368 246 236 180
369 180 236 176
370 123 247 186
371 247 248 249
372 248 136 196
373 247 249 186
374 248 196 249
375 186 249 187
376 249 196 195
377 249 195 187
378 187 195 188
379 200 204 250
380 204 207 251
381 207 188 193
382 204 251 250
383 207 193 251
384 250 251 252
385 251 193 192
386 251 192 252
387 252 192 133
388 20 94 211
389 94 93 253
390 93 1 5
391 94 253 211
392 93 5 253
393 211 253 213
394 253 5 8
395 253 8 213
396 213 8 10
397 79 221 77
398 221 220 254
399 220 61 65
400 221 254 77
401 220 65 254
402 77 254 74
403 254 65 68
404 254 68 74
405 74 68 70
406 51 50 161
407 50 49 255
408 49 48 256
409 50 255 161
410 49 256 255
411 161 255 163
412 255 256 257
413 255 257 163
414 163 257 164
415 156 258 157
416 258 259 261
417 259 260 262
418 258 261 157
419 259 262 261
420 157 261 158
421 261 262 263
422 261 263 158
423 158 263 51
424 51 263 116
425 263 262 264
426 262 260 265
427 263 264 116
428 262 265 264
429 116 264 114
430 264 265 266
431 264 266 114
432 114 266 111
433 40 151 267
434 151 154 268
435 154 111 266
436 151 268 267
437 154 266 268
438 267 268 269
439 268 266 265
440 268 265 269
441 269 265 260
442 24 232 27
443 232 231 270
444 231 111 155
445 232 270 27
446 231 155 270
447 27 270 29
448 270 155 153
449 270 153 29
450 29 153 30
