270 2 0 1
1 -1.221714091660356 -0.369786166751581 0
2 -0.936484529035050 -0.413190777834388 0
3 -0.651254966409744 -0.456595388917194 0
4 -0.366025403784438 -0.500000000000000 2
5 -0.981142727773570 -0.246524111167721 0
6 -0.695913165148265 -0.289928722250527 0
7 -0.410683602522959 -0.333333333333333 2
8 -0.740571363886785 -0.123262055583860 0
9 -0.455341801261479 -0.166666666666667 2
10 -0.500000000000000 0.000000000000000 2
11 -0.868662439747455 1.020495887573543 0
12 -1.156458562354596 1.013663925049029 0
13 -1.444254684961736 1.006831962524514 0
14 -1.732050807568877 1.000000000000000 1
15 -0.957050592948498 0.796285249560016 0
16 -1.244846715555639 0.789453287035501 0
17 -1.532642838162780 0.782621324510987 0
18 -1.045438746149542 0.572074611546489 0
19 -1.333234868756683 0.565242649021974 0
20 -1.133826899350585 0.347863973532961 0
21 -1.000000000000001 -1.732050807568877 1
22 -0.666666666666667 -1.821367205045918 1
23 -0.333333333333334 -1.910683602522959 1
24 -0.000000000000000 -2.000000000000000 1
25 -0.700241747200017 -1.616087752505409 0
26 -0.366908413866684 -1.705404149982451 0
27 -0.033575080533350 -1.794720547459491 0
28 -0.400483494400033 -1.500124697441942 0
29 -0.067150161066700 -1.589441094918983 0
30 -0.100725241600050 -1.384161642378475 0
31 -1.732050807568878 -1.000000000000000 1
32 -1.488033871712585 -1.244016935856292 1
33 -1.244016935856293 -1.488033871712584 1
34 -1.435049159336664 -1.011568836487223 0
35 -1.191032223480372 -1.255585772343515 0
36 -0.947015287624079 -1.499602708199808 0
37 -1.138047511104451 -1.023137672974446 0
38 -0.894030575248158 -1.267154608830739 0
39 -0.841045862872237 -1.034706509461670 0
40 0.000000000000001 -0.866025403784439 2
41 -0.122008467928146 -0.744016935856293 2
42 -0.244016935856292 -0.622008467928147 2
43 -0.280348620957412 -0.922252439010183 0
44 -0.402357088885558 -0.800243971082036 0
45 -0.524365556813705 -0.678235503153890 0
46 -0.560697241914824 -0.978479474235926 0
47 -0.682705709842971 -0.856471006307780 0
48 1.000000000000000 -1.732050807568877 1
49 0.949358737117772 -1.587713240271471 0
50 0.898717474235544 -1.443375672974064 0
51 0.848076211353316 -1.299038105676658 0
52 0.833333333333333 -1.776709006307398 1
53 0.782692070451105 -1.632371439009991 0
54 0.732050807568877 -1.488033871712584 0
55 0.666666666666667 -1.821367205045918 1
56 0.616025403784439 -1.677029637748511 0
57 0.500000000000000 -1.866025403784439 1
58 -0.647257034824096 -1.383639653136340 0
59 -0.347498782024112 -1.267676598072873 0
60 -0.594272322448175 -1.151191553767271 0
61 0.000000000000000 2.000000000000000 1
62 -0.333333333333333 1.910683602522959 1
63 -0.666666666666666 1.821367205045918 1
64 -1.000000000000000 1.732050807568878 1
65 -0.095193382637288 1.792714525141103 0
66 -0.428526715970621 1.703398127664062 0
67 -0.761860049303954 1.614081730187022 0
68 -0.190386765274576 1.585429050282206 0
69 -0.523720098607909 1.496112652805166 0
70 -0.285580147911863 1.378143575423310 0
71 -0.190386765274576 1.207437518210353 0
72 -0.095193382637288 1.036731460997396 0
73 -0.000000000000000 0.866025403784439 2
74 -0.151711630679763 1.396433284246279 0
75 -0.056518248042475 1.225727227033322 0
76 0.038675134594813 1.055021169820365 0
77 -0.017843113447662 1.414722993069249 0
78 0.077350269189626 1.244016935856292 0
79 0.116025403784439 1.433012701892219 0
80 -1.244016935856292 1.488033871712585 1
81 -1.488033871712584 1.244016935856292 1
82 -0.956220813249151 1.494865834237100 0
83 -1.200237749105444 1.250848898380807 0
84 -0.912441626498303 1.257680860905321 0
85 -0.366025403784439 0.500000000000000 2
86 -0.244016935856292 0.622008467928146 2
87 -0.122008467928146 0.744016935856292 2
88 -0.533571082438777 0.673498629191181 0
89 -0.411562614510631 0.795507097119327 0
90 -0.289554146582485 0.917515565047474 0
91 -0.701116761093116 0.846997258382362 0
92 -0.579108293164970 0.969005726310509 0
93 -1.192418360890432 -0.130569453323400 0
94 -1.163122630120509 0.108647260104780 0
95 -1.481142727773570 -0.246524111167721 0
96 -1.451846997003647 -0.007307397739540 0
97 -1.422551266233723 0.231909315688641 0
98 -1.740571363886785 -0.123262055583860 0
99 -1.711275633116862 0.115954657844321 0
100 -2.000000000000000 0.000000000000000 1
101 1.366025403784439 -0.500000000000000 2
102 1.488033871712585 -0.666666666666667 0
103 1.610042339640731 -0.833333333333334 0
104 1.732050807568877 -1.000000000000001 1
105 1.532692070451105 -0.500000000000000 0
106 1.654700538379251 -0.666666666666667 0
107 1.776709006307397 -0.833333333333334 1
108 1.699358737117772 -0.500000000000000 0
109 1.821367205045918 -0.666666666666667 1
110 1.866025403784438 -0.500000000000000 1
111 0.353712454763080 -1.433012701892219 0
112 0.402474969842053 -1.577350269189626 0
113 0.451237484921027 -1.721687836487032 0
114 0.518500373626492 -1.388354503153699 0
115 0.567262888705465 -1.532692070451105 0
116 0.683288292489904 -1.343696304415178 0
117 -0.384747529219773 1.088221622260431 0
118 -0.479940911857061 1.258927679473388 0
119 -0.674301675802258 1.139711783523466 0
120 -0.033575080533349 -1.038737483315784 0
121 -0.313923701490762 -1.094964518541528 0
122 -0.067150161066700 -1.211449562847129 0
123 0.500000000000000 1.000000000000000 2
124 0.372008467928146 1.144337567297406 0
125 0.244016935856292 1.288675134594813 0
126 0.333333333333333 0.955341801261479 2
127 0.205341801261480 1.099679368558886 0
128 0.166666666666667 0.910683602522959 2
129 -0.718080862553106 1.376896756855244 0
130 -0.789504914294160 0.622786620368835 0
131 -0.877893067495203 0.398575982355307 0
132 -0.621959235639821 0.449287991177654 0
133 1.366025403784439 1.366025403784439 1
134 1.244016935856292 1.199358737117772 0
135 1.122008467928146 1.032692070451105 0
136 1.000000000000000 0.866025403784439 2
137 1.488033871712585 1.244016935856292 1
138 1.366025403784439 1.077350269189626 0
139 1.244016935856292 0.910683602522959 0
140 1.610042339640731 1.122008467928146 1
141 1.488033871712585 0.955341801261479 0
142 1.732050807568877 1.000000000000000 1
143 -1.561938568932704 -0.789928722250527 0
144 -1.264936920700490 -0.801497558737750 0
145 -0.967935272468276 -0.813066395224973 0
146 -1.391826330296530 -0.579857444501054 0
147 -1.094824682064316 -0.591426280988277 0
148 -1.910683602522959 0.333333333333333 1
149 -1.621959235639821 0.449287991177654 0
150 -1.821367205045918 0.666666666666667 1
151 0.117904151587694 -1.055021169820366 0
152 0.084329071054344 -1.227733249351711 0
153 0.050753990520994 -1.400445328883056 0
154 0.235808303175387 -1.244016935856292 0
155 0.202233222642037 -1.416729015387638 0
156 1.000000000000000 -0.866025403784438 2
157 0.949358737117772 -1.010362971081845 0
158 0.898717474235544 -1.154700538379251 0
159 1.122008467928146 -1.032692070451105 0
160 1.071367205045918 -1.177029637748512 0
161 1.020725942163690 -1.321367205045918 0
162 1.244016935856292 -1.199358737117772 0
163 1.193375672974064 -1.343696304415179 0
164 1.366025403784438 -1.366025403784439 1
165 1.244016935856292 -0.910683602522959 0
166 1.366025403784438 -1.077350269189626 0
167 1.488033871712584 -1.244016935856293 1
168 1.488033871712584 -0.955341801261480 0
169 1.610042339640730 -1.122008467928147 1
170 -0.809595119439010 -0.634830892071084 0
171 1.410683602522959 -0.333333333333333 2
172 1.577350269189626 -0.333333333333333 0
173 1.744016935856292 -0.333333333333334 0
174 1.455341801261480 -0.166666666666667 2
175 1.622008467928146 -0.166666666666667 0
176 1.500000000000000 0.000000000000000 2
177 1.366025403784439 -0.788675134594813 0
178 1.244016935856293 -0.622008467928146 2
179 1.122008467928147 -0.744016935856292 2
180 1.666666666666667 0.000000000000000 0
181 1.788675134594813 -0.166666666666667 0
182 1.910683602522959 -0.333333333333334 1
183 1.833333333333333 0.000000000000000 0
184 1.955341801261479 -0.166666666666667 1
185 2.000000000000000 0.000000000000000 1
186 0.591474968012879 1.123505838795790 0
187 0.682949936025757 1.247011677591580 0
188 0.774424904038636 1.370517516387370 0
189 0.463483435941025 1.267843406093196 0
190 0.554958403953904 1.391349244888986 0
191 0.335491903869171 1.412180973390603 0
192 1.168825237202505 1.367522774652082 0
193 0.971625070620570 1.369020145519726 0
194 1.046816769274358 1.200856107985416 0
195 0.849616602692424 1.202353478853059 0
196 0.924808301346212 1.034189441318749 0
197 -1.910683602522959 -0.333333333333333 1
198 -1.821367205045918 -0.666666666666666 1
199 -1.651254966409744 -0.456595388917193 0
200 1.000000000000000 1.732050807568877 1
201 0.833333333333333 1.776709006307398 1
202 0.666666666666667 1.821367205045918 1
203 0.500000000000000 1.866025403784439 1
204 0.924808301346212 1.611539710508375 0
205 0.758141634679545 1.656197909246895 0
206 0.591474968012879 1.700856107985415 0
207 0.849616602692424 1.491028613447872 0
208 0.682949936025757 1.535686812186392 0
209 -0.410683602522959 0.333333333333333 2
210 -0.666617434378341 0.282621324510987 0
211 -0.922551266233724 0.231909315688641 0
212 -0.455341801261480 0.166666666666667 2
213 -0.711275633116862 0.115954657844320 0
214 0.463483435941025 1.556518540688009 0
215 0.372008467928146 1.721687836487032 0
216 0.244016935856292 1.577350269189626 0
217 0.333333333333333 1.910683602522959 1
218 0.166666666666667 1.955341801261479 1
219 0.205341801261480 1.766346035225552 0
220 0.038675134594813 1.811004233964073 0
221 0.077350269189626 1.622008467928146 0
222 1.366025403784438 0.500000000000000 2
223 1.532692070451105 0.500000000000000 0
224 1.699358737117772 0.500000000000000 0
225 1.866025403784439 0.500000000000000 1
226 1.488033871712584 0.666666666666667 0
227 1.654700538379251 0.666666666666667 0
228 1.821367205045918 0.666666666666667 1
229 1.610042339640731 0.833333333333333 0
230 1.776709006307398 0.833333333333333 1
231 0.235808303175387 -1.622008467928146 0
232 0.117904151587693 -1.811004233964073 0
233 0.284570818254360 -1.766346035225552 0
234 0.166666666666666 -1.955341801261479 1
235 0.333333333333333 -1.910683602522959 1
236 1.622008467928146 0.166666666666667 0
237 1.744016935856292 0.333333333333333 0
238 1.455341801261479 0.166666666666667 2
239 1.577350269189626 0.333333333333333 0
240 1.410683602522959 0.333333333333333 2
241 1.244016935856292 0.622008467928146 2
242 1.366025403784438 0.788675134594813 0
243 1.122008467928146 0.744016935856292 2
244 1.955341801261480 0.166666666666667 1
245 1.910683602522959 0.333333333333333 1
246 1.788675134594813 0.166666666666667 0
247 0.666666666666667 0.955341801261479 2
248 0.833333333333333 0.910683602522959 2
249 0.758141634679545 1.078847640057269 0
250 1.122008467928146 1.610042339640731 1
251 1.046816769274358 1.489531242580228 0
252 1.244016935856293 1.488033871712585 1
253 -0.951846997003647 -0.007307397739540 0
254 -0.056518248042475 1.603718759105176 0
255 1.071367205045918 -1.465704772343325 0
256 1.122008467928146 -1.610042339640731 1
257 1.244016935856292 -1.488033871712585 1
258 0.833333333333334 -0.910683602522959 2
259 0.666666666666667 -0.955341801261479 2
260 0.500000000000000 -1.000000000000000 2
261 0.782692070451106 -1.055021169820365 0
262 0.616025403784439 -1.099679368558886 0
263 0.732050807568877 -1.199358737117772 0
264 0.567262888705465 -1.244016935856292 0
265 0.451237484921027 -1.144337567297406 0
266 0.402474969842054 -1.288675134594813 0
267 0.166666666666667 -0.910683602522959 2
268 0.284570818254360 -1.099679368558886 0
269 0.333333333333334 -0.955341801261480 2
270 0.084329071054343 -1.605724781423564 0
