294 2 0 1
1 410.000000000000000 305.000000000000000 1
2 456.833333333333314 300.333333333333314 1
3 503.666666666666629 295.666666666666629 1
4 550.500000000000000 291.000000000000000 1
5 421.573803833037800 334.916472118272225 0
6 468.407137166371172 330.249805451605539 0
7 515.240470499704543 325.583138784938910 0
8 433.147607666075714 364.832944236544449 0
9 479.980940999409029 360.166277569877820 0
10 444.721411499113572 394.749416354816731 0
11 453.343161991333091 142.127921246853617 1
12 477.228774660888689 128.085280831235735 1
13 501.114387330444345 114.042640415617853 1
14 525.000000000000000 100.000000000000000 1
15 458.849980952488295 158.079184052281335 0
16 482.735593622043950 144.036543636663453 0
17 506.621206291599606 129.993903221045571 0
18 464.356799913643556 174.030446857709023 0
19 488.242412583199211 159.987806442091141 0
20 469.863618874798874 189.981709663136741 1
21 427.575745916532526 195.654473108757827 1
22 385.287872958266234 201.327236554378914 1
23 343.000000000000000 207.000000000000000 1
24 422.068926955377265 179.703210303330110 0
25 379.781053997111030 185.375973748951196 1
26 416.562107994222004 163.751947497902393 1
27 755.250000000000000 131.500000000000000 1
28 780.833333333333258 135.000000000000000 1
29 806.416666666666629 138.500000000000000 1
30 832.000000000000000 142.000000000000000 1
31 760.500000000000000 156.333333333333314 0
32 786.083333333333258 159.833333333333314 0
33 811.666666666666629 163.333333333333314 0
34 765.750000000000000 181.166666666666629 0
35 791.333333333333258 184.666666666666629 0
36 771.000000000000000 206.000000000000000 1
37 652.985508231091785 349.795341795155252 0
38 682.703949607483082 364.364963232570631 0
39 712.422390983874379 378.934584669986066 0
40 742.140832360265676 393.504206107401501 0
41 658.657005487394485 376.196894530103464 0
42 688.375446863785783 390.766515967518899 0
43 718.093888240177080 405.336137404934334 0
44 664.328502743697186 402.598447265051732 0
45 694.046944120088483 417.168068702467167 0
46 670.000000000000000 429.000000000000000 2
47 730.166666666666629 151.000000000000000 0
48 705.083333333333258 170.500000000000000 0
49 680.000000000000000 190.000000000000000 1
50 729.666666666666629 127.999999999999986 1
51 704.583333333333258 147.500000000000000 0
52 679.500000000000000 167.000000000000000 0
53 704.083333333333258 124.499999999999986 1
54 679.000000000000000 144.000000000000000 0
55 678.500000000000000 121.000000000000000 1
56 970.500000000000000 470.000000000000000 1
57 923.000000000000000 431.000000000000000 0
58 875.500000000000000 392.000000000000000 0
59 828.000000000000000 353.000000000000000 1
60 979.666666666666629 416.000000000000000 1
61 932.166666666666629 377.000000000000000 0
62 884.666666666666629 338.000000000000000 0
63 988.833333333333258 362.000000000000000 1
64 941.333333333333258 323.000000000000000 0
65 998.000000000000000 308.000000000000000 1
66 391.354695360534322 502.974930399909226 0
67 361.903130240356177 490.316620266606151 0
68 332.451565120178088 477.658310133303075 0
69 303.000000000000000 465.000000000000000 1
70 379.736463573689491 463.649953599939465 0
71 350.284898453511403 450.991643466636390 0
72 320.833333333333314 438.333333333333314 1
73 368.118231786844717 424.324976799969704 0
74 338.666666666666629 411.666666666666629 1
75 356.500000000000000 385.000000000000000 1
76 701.200316198962696 622.821144534186828 0
77 660.308134538755212 634.485424923173241 0
78 619.415952878547841 646.149705312159767 0
79 578.523771218340471 657.813985701146294 0
80 673.800210799308388 605.880763022791143 0
81 632.908029139101018 617.545043411777669 0
82 592.015847478893647 629.209323800764196 0
83 646.400105399654194 588.940381511395572 0
84 605.507923739446824 600.604661900382098 0
85 619.000000000000000 572.000000000000000 2
86 374.333333333333314 358.333333333333258 1
87 392.166666666666629 331.666666666666629 1
88 385.907137166371172 388.249805451605539 0
89 403.740470499704543 361.583138784938910 0
90 415.314274332742343 391.499610903211135 0
91 546.333333333333258 124.666666666666657 0
92 567.666666666666629 149.333333333333314 0
93 589.000000000000000 174.000000000000000 1
94 527.954539624932977 154.660569887712256 0
95 549.287872958266234 179.327236554378914 1
96 509.575745916532526 184.654473108757827 1
97 338.000000000000000 671.000000000000000 1
98 332.166666666666629 636.666666666666629 1
99 326.333333333333314 602.333333333333258 1
100 320.500000000000000 568.000000000000000 1
101 368.371244151745032 649.816200160547623 0
102 362.537910818411660 615.482866827214366 0
103 356.704577485078346 581.149533493880995 0
104 398.742488303490063 628.632400321095361 0
105 392.909154970156692 594.299066987761989 0
106 429.113732455235095 607.448600481643098 0
107 489.000000000000000 505.000000000000000 2
108 474.240470499704543 468.249805451605539 0
109 459.480940999409029 431.499610903211135 0
110 505.333333333333314 476.999999999999943 2
111 490.573803833037857 440.249805451605539 0
112 475.814274332742343 403.499610903211135 0
113 521.666666666666629 448.999999999999943 2
114 506.907137166371172 412.249805451605539 0
115 538.000000000000000 421.000000000000000 2
116 663.833333333333258 141.333333333333314 0
117 664.333333333333258 164.333333333333314 0
118 664.833333333333258 187.333333333333314 1
119 649.166666666666629 161.666666666666657 0
120 649.666666666666629 184.666666666666657 1
121 634.500000000000000 182.000000000000000 1
122 759.500000000000000 315.000000000000000 1
123 753.713610786755225 341.168068702467167 0
124 747.927221573510451 367.336137404934334 0
125 723.995169410363928 326.598447265051732 0
126 718.208780197119154 352.766515967518899 0
127 688.490338820727857 338.196894530103464 0
128 665.657005487394485 325.530227863436835 0
129 678.328502743697186 301.265113931718417 0
130 691.000000000000000 277.000000000000000 1
131 701.161836077030557 313.931780598385103 0
132 713.833333333333258 289.666666666666629 1
133 736.666666666666629 302.333333333333314 1
134 601.750000000000000 110.500000000000000 1
135 627.333333333333258 113.999999999999986 1
136 652.916666666666629 117.499999999999986 1
137 612.666666666666629 134.333333333333314 0
138 638.250000000000000 137.833333333333314 0
139 623.583333333333258 158.166666666666657 0
140 710.333333333333258 195.333333333333314 1
141 735.416666666666629 175.833333333333314 0
142 740.666666666666629 200.666666666666629 1
143 859.666666666666629 169.666666666666657 1
144 887.333333333333258 197.333333333333314 1
145 915.000000000000000 225.000000000000000 1
146 839.333333333333258 191.000000000000000 0
147 867.000000000000000 218.666666666666657 0
148 819.000000000000000 212.333333333333314 0
149 367.736463573689491 524.649953599939408 0
150 344.118231786844717 546.324976799969704 0
151 338.284898453511403 511.991643466636390 0
152 314.666666666666629 533.666666666666629 1
153 308.833333333333314 499.333333333333314 1
154 619.333333333333258 179.333333333333314 1
155 604.166666666666629 176.666666666666657 1
156 608.416666666666629 155.500000000000000 0
157 593.250000000000000 152.833333333333314 0
158 597.500000000000000 131.666666666666657 0
159 970.333333333333258 280.333333333333314 1
160 913.666666666666629 295.333333333333314 0
161 857.000000000000000 310.333333333333314 0
162 942.666666666666629 252.666666666666657 1
163 886.000000000000000 267.666666666666629 0
164 790.000000000000000 254.999999999999972 1
165 838.000000000000000 261.333333333333314 0
166 809.000000000000000 304.000000000000000 1
167 571.916666666666629 128.166666666666657 0
168 550.583333333333258 103.499999999999986 1
169 576.166666666666629 106.999999999999986 1
170 733.427221573510451 431.336137404934334 0
171 724.713610786755225 469.168068702467167 0
172 716.000000000000000 507.000000000000000 2
173 709.380277453421854 443.168068702467167 0
174 700.666666666666629 481.000000000000000 2
175 685.333333333333258 455.000000000000000 2
176 782.333333333333258 327.666666666666629 1
177 805.166666666666629 340.333333333333314 1
178 776.546944120088483 353.834735369133796 0
179 799.380277453421854 366.501402035800481 0
180 770.760554906843709 380.002804071600963 0
181 760.459649380631163 503.195515210311498 0
182 769.173260167386388 465.363583912778665 0
183 777.886870954141614 427.531652615245832 0
184 804.919298761262212 499.391030420622997 0
185 813.632909548017437 461.559099123090164 0
186 849.378948141893375 495.586545630934495 0
187 789.782518960547918 584.183415966379243 0
188 760.255118040019511 597.062658822315143 0
189 730.727717119491103 609.941901678250929 0
190 765.188345973698574 558.455610644252829 0
191 735.660945053170167 571.334853500188729 0
192 706.133544132641759 584.214096356124514 0
193 740.594172986849344 532.727805322126414 0
194 711.066772066320937 545.607048178062314 0
195 840.855012640365203 600.122277310919458 0
196 891.927506320182601 616.061138655459672 0
197 943.000000000000000 632.000000000000000 1
198 785.021679307031945 619.455610644252829 0
199 836.094172986849344 635.394471988793043 0
200 887.166666666666629 651.333333333333258 1
201 780.260839653515973 654.727805322126414 0
202 831.333333333333258 670.666666666666629 1
203 775.500000000000000 690.000000000000000 1
204 725.966877465975131 645.214096356124514 0
205 750.733438732987565 667.607048178062314 0
206 698.050210799308388 654.880763022791143 0
207 722.816772066320937 677.273714844728943 0
208 747.583333333333258 699.666666666666629 1
209 694.900105399654194 686.940381511395572 0
210 719.666666666666629 709.333333333333258 1
211 691.750000000000000 719.000000000000000 1
212 426.932506119587117 430.824587703180896 0
213 441.692035619882631 467.574782251575300 0
214 456.451565120178088 504.324976799969704 0
215 409.143600740060720 466.899759051545061 0
216 423.903130240356177 503.649953599939465 0
217 597.333333333333258 286.333333333333314 1
218 644.166666666666629 281.666666666666629 1
219 584.661836077030557 310.598447265051732 0
220 631.495169410363928 305.931780598385046 0
221 618.823672154061114 330.196894530103464 0
222 835.126316047297792 400.528848543644813 0
223 842.252632094595583 448.057697087289625 0
224 806.506593500719646 414.030250579445351 0
225 608.000000000000000 748.000000000000000 1
226 563.000000000000000 735.166666666666629 1
227 518.000000000000000 722.333333333333258 1
228 473.000000000000000 709.500000000000000 1
229 598.174590406113452 717.937995233715355 0
230 553.174590406113452 705.104661900382098 0
231 508.174590406113452 692.271328567048727 0
232 588.349180812226905 687.875990467430825 0
233 543.349180812226905 675.042657134097453 0
234 546.333333333333258 334.333333333333314 0
235 580.495169410363815 353.931780598385046 0
236 614.657005487394485 373.530227863436835 0
237 542.166666666666629 377.666666666666629 0
238 576.328502743697186 397.265113931718361 0
239 511.073803833037800 368.916472118272225 0
240 626.000000000000000 426.333333333333314 2
241 582.000000000000000 423.666666666666629 2
242 620.328502743697186 399.931780598385046 0
243 397.525368953215889 427.574782251575300 0
244 930.126316047297792 478.528848543644813 0
245 889.752632094595583 487.057697087289625 0
246 882.626316047297792 439.528848543644813 0
247 961.333333333333258 524.000000000000000 1
248 952.166666666666629 578.000000000000000 1
249 920.959649380631049 532.528848543644813 0
250 911.792982713964420 586.528848543644813 0
251 880.585965427928841 541.057697087289625 0
252 380.322809271923120 559.474510293850699 0
253 403.941041058767837 537.799487093820517 0
254 416.527386757001466 572.624043787731807 0
255 486.319988548055790 673.549590686479632 0
256 499.639977096111579 637.599181372959151 0
257 512.959965644167482 601.648772059438784 0
258 521.494578954169356 656.320919253528359 0
259 534.814567502225145 620.370509940007878 0
260 556.669169360282694 639.092247820577086 0
261 469.037910818411660 539.149533493880995 0
262 449.075821636823378 573.299066987761989 0
263 436.489475938589749 538.474510293850699 0
264 570.161245620835871 610.487585920194988 0
265 548.306643762778322 591.765848039625780 0
266 583.653321881389047 581.882924019812890 0
267 428.000000000000000 696.666666666666629 1
268 383.000000000000000 683.833333333333258 1
269 458.371244151745032 675.482866827214366 0
270 413.371244151745032 662.649533493880995 0
271 443.742488303490063 641.465733654428732 0
272 635.916666666666629 738.333333333333258 1
273 626.091257072780081 708.271328567048727 0
274 616.265847478893647 678.209323800764196 0
275 663.833333333333258 728.666666666666629 1
276 654.007923739446824 698.604661900382098 0
277 755.494278386503538 632.334853500188729 0
278 785.053822367480393 528.923320532437856 0
279 829.513471748111556 525.118835742749411 0
280 809.647995354329737 554.651125854564270 0
281 860.720489034147135 570.589987199104598 0
282 532.333333333333258 527.333333333333258 2
283 575.666666666666629 549.666666666666629 2
284 496.986655214722475 537.216257353146148 0
285 540.319988548055790 559.549590686479632 0
286 504.973310429444950 569.432514706292523 0
287 657.158029139101018 666.545043411777669 0
288 683.666666666666629 528.666666666666629 2
289 678.733438732987452 567.273714844728943 0
290 651.333333333333258 550.333333333333258 2
291 485.011221247856611 603.582048200173517 0
292 471.691232699800821 639.532457513693998 0
293 457.062476851545853 605.515324340908364 0
294 477.024566033134136 571.365790847027256 0
