486 3 0
1 0 4 84
2 0 5 4
3 0 316 5
4 2 6 1
5 3 7 2
6 4 8 88
7 5 321 8
8 7 9 6
9 8 324 90
10 0 13 27
11 0 14 13
12 0 91 14
13 11 15 10
14 12 16 11
15 13 17 24
16 14 96 17
17 16 18 15
18 17 99 19
19 0 22 18
20 0 23 22
21 0 0 23
22 20 24 19
23 21 25 20
24 22 26 15
25 23 0 26
26 25 27 24
27 26 0 10
28 0 31 156
29 0 32 31
30 0 163 32
31 29 33 28
32 30 34 29
33 31 35 160
34 32 168 35
35 34 36 33
36 35 171 162
37 135 40 333
38 133 41 40
39 129 217 41
40 38 42 37
41 39 43 38
42 40 44 330
43 41 222 44
44 43 45 42
45 44 225 325
46 156 49 0
47 155 50 49
48 154 120 50
49 47 51 46
50 48 52 47
51 49 53 0
52 50 119 53
53 52 54 51
54 53 118 0
55 343 58 0
56 348 59 58
57 351 192 59
58 56 60 55
59 57 61 56
60 58 62 0
61 59 191 62
62 61 63 60
63 62 190 0
64 172 67 334
65 177 68 67
66 180 0 68
67 65 69 64
68 66 70 65
69 67 71 335
70 68 0 71
71 70 72 69
72 71 0 336
73 453 76 462
74 452 77 76
75 451 388 77
76 74 78 73
77 75 79 74
78 76 80 466
79 77 393 80
80 79 81 78
81 80 396 468
82 0 85 336
83 0 86 85
84 0 1 86
85 83 87 82
86 84 88 83
87 85 89 340
88 86 6 89
89 88 90 87
90 89 9 342
91 210 94 12
92 209 95 94
93 208 0 95
94 92 96 91
95 93 97 92
96 94 98 16
97 95 0 98
98 97 99 96
99 98 0 18
100 0 103 399
101 0 104 103
102 0 361 104
103 101 105 100
104 102 106 101
105 103 107 403
106 104 366 107
107 106 108 105
108 107 369 405
109 273 112 0
110 272 113 112
111 271 324 113
112 110 114 109
113 111 115 110
114 112 116 0
115 113 322 116
116 115 117 114
117 116 318 0
118 54 121 147
119 52 122 121
120 48 0 122
121 119 123 118
122 120 124 119
123 121 125 151
124 122 0 125
125 124 126 123
126 125 0 153
127 226 130 144
128 231 131 130
129 234 39 131
130 128 132 127
131 129 133 128
132 130 134 141
133 131 38 134
134 133 135 132
135 134 37 136
136 288 139 135
137 286 140 139
138 282 0 140
139 137 141 136
140 138 142 137
141 139 143 132
142 140 0 143
143 142 144 141
144 143 0 127
145 0 148 189
146 0 149 148
147 0 118 149
148 146 150 145
149 147 151 146
150 148 152 186
151 149 123 152
152 151 153 150
153 152 126 181
154 48 157 0
155 47 158 157
156 46 28 158
157 155 159 154
158 156 160 155
159 157 161 0
160 158 33 161
161 160 162 159
162 161 36 0
163 0 166 30
164 0 167 166
165 0 201 167
166 164 168 163
167 165 169 164
168 166 170 34
169 167 200 170
170 169 171 168
171 170 199 36
172 363 175 64
173 362 176 175
174 361 0 176
175 173 177 172
176 174 178 173
177 175 179 65
178 176 0 179
179 178 180 177
180 179 0 66
181 0 184 153
182 0 185 184
183 0 208 185
184 182 186 181
185 183 187 182
186 184 188 150
187 185 213 188
188 187 189 186
189 188 216 145
190 63 193 0
191 61 194 193
192 57 207 194
193 191 195 190
194 192 196 191
195 193 197 0
196 194 205 197
197 196 198 195
198 197 201 0
199 171 202 0
200 169 203 202
201 165 198 203
202 200 204 199
203 201 205 200
204 202 206 0
205 203 196 206
206 205 207 204
207 206 192 0
208 93 211 183
209 92 212 211
210 91 0 212
211 209 213 208
212 210 214 209
213 211 215 187
214 212 0 215
215 214 216 213
216 215 0 189
217 237 220 39
218 236 221 220
219 235 0 221
220 218 222 217
221 219 223 218
222 220 224 43
223 221 0 224
224 223 225 222
225 224 0 45
226 0 229 127
227 0 230 229
228 0 289 230
229 227 231 226
230 228 232 227
231 229 233 128
232 230 294 233
233 232 234 231
234 233 297 129
235 219 238 424
236 218 239 238
237 217 297 239
238 236 240 235
239 237 241 236
240 238 242 425
241 239 295 242
242 241 243 240
243 242 291 426
244 423 247 432
245 421 248 247
246 417 462 248
247 245 249 244
248 246 250 245
249 247 251 429
250 248 461 251
251 250 252 249
252 251 460 424
253 435 256 423
254 434 257 256
255 433 0 257
256 254 258 253
257 255 259 254
258 256 260 420
259 257 0 260
260 259 261 258
261 260 0 415
262 417 265 453
263 416 266 265
264 415 0 266
265 263 267 262
266 264 268 263
267 265 269 457
268 266 0 269
269 268 270 267
270 269 0 459
271 111 274 342
272 110 275 274
273 109 379 275
274 272 276 271
275 273 277 272
276 274 278 339
277 275 384 278
278 277 279 276
279 278 387 334
280 0 283 307
281 0 284 283
282 0 138 284
283 281 285 280
284 282 286 281
285 283 287 308
286 284 137 287
287 286 288 285
288 287 136 309
289 351 292 228
290 349 293 292
291 345 243 293
292 290 294 289
293 291 295 290
294 292 296 232
295 293 241 296
296 295 297 294
297 296 237 234
298 0 301 406
299 0 302 301
300 0 370 302
301 299 303 298
302 300 304 299
303 301 305 407
304 302 375 305
305 304 306 303
306 305 378 408
307 280 310 316
308 285 311 310
309 288 333 311
310 308 312 307
311 309 313 308
312 310 314 317
313 311 331 314
314 313 315 312
315 314 327 318
316 307 319 3
317 312 320 319
318 315 117 320
319 317 321 316
320 318 322 317
321 319 323 7
322 320 115 323
323 322 324 321
324 323 111 9
325 0 328 45
326 0 329 328
327 0 315 329
328 326 330 325
329 327 331 326
330 328 332 42
331 329 313 332
332 331 333 330
333 332 309 37
334 64 337 279
335 69 338 337
336 72 82 338
337 335 339 334
338 336 340 335
339 337 341 276
340 338 87 341
341 340 342 339
342 341 90 271
343 352 346 55
344 357 347 346
345 360 291 347
346 344 348 343
347 345 349 344
348 346 350 56
349 347 290 350
350 349 351 348
351 350 289 57
352 0 355 343
353 0 356 355
354 0 433 356
355 353 357 352
356 354 358 353
357 355 359 344
358 356 438 359
359 358 360 357
360 359 441 345
361 174 364 102
362 173 365 364
363 172 387 365
364 362 366 361
365 363 367 362
366 364 368 106
367 365 385 368
368 367 369 366
369 368 381 108
370 471 373 300
371 470 374 373
372 469 390 374
373 371 375 370
374 372 376 371
375 373 377 304
376 374 389 377
377 376 378 375
378 377 388 306
379 480 382 273
380 479 383 382
381 478 369 383
382 380 384 379
383 381 385 380
384 382 386 277
385 383 367 386
386 385 387 384
387 386 363 279
388 378 391 75
389 376 392 391
390 372 450 392
391 389 393 388
392 390 394 389
393 391 395 79
394 392 448 395
395 394 396 393
396 395 444 81
397 0 400 471
398 0 401 400
399 0 100 401
400 398 402 397
401 399 403 398
402 400 404 475
403 401 105 404
404 403 405 402
405 404 108 477
406 298 409 0
407 303 410 409
408 306 451 410
409 407 411 406
410 408 412 407
411 409 413 0
412 410 456 413
413 412 414 411
414 413 459 0
415 264 418 261
416 263 419 418
417 262 246 419
418 416 420 415
419 417 421 416
420 418 422 258
421 419 245 422
422 421 423 420
423 422 244 253
424 235 427 252
425 240 428 427
426 243 441 428
427 425 429 424
428 426 430 425
429 427 431 249
430 428 439 431
431 430 432 429
432 431 435 244
433 255 436 354
434 254 437 436
435 253 432 437
436 434 438 433
437 435 439 434
438 436 440 358
439 437 430 440
440 439 441 438
441 440 426 360
442 0 445 480
443 0 446 445
444 0 396 446
445 443 447 442
446 444 448 443
447 445 449 484
448 446 394 449
449 448 450 447
450 449 390 486
451 75 454 408
452 74 455 454
453 73 262 455
454 452 456 451
455 453 457 452
456 454 458 412
457 455 267 458
458 457 459 456
459 458 270 414
460 252 463 0
461 250 464 463
462 246 73 464
463 461 465 460
464 462 466 461
465 463 467 0
466 464 78 467
467 466 468 465
468 467 81 0
469 372 472 486
470 371 473 472
471 370 397 473
472 470 474 469
473 471 475 470
474 472 476 483
475 473 402 476
476 475 477 474
477 476 405 478
478 381 481 477
479 380 482 481
480 379 442 482
481 479 483 478
482 480 484 479
483 481 485 474
484 482 447 485
485 484 486 483
486 485 450 469
