486 3 0
1 1 2 5
2 2 3 6
3 3 4 7
4 2 6 5
5 3 7 6
6 5 6 8
7 6 7 9
8 6 9 8
9 8 9 10
10 11 12 15
11 12 13 16
12 13 14 17
13 12 16 15
14 13 17 16
15 15 16 18
16 16 17 19
17 16 19 18
18 18 19 20
19 20 21 18
20 21 22 24
21 22 23 25
22 21 24 18
23 22 25 24
24 18 24 15
25 24 25 26
26 24 26 15
27 15 26 11
28 27 28 31
29 28 29 32
30 29 30 33
31 28 32 31
32 29 33 32
33 31 32 34
34 32 33 35
35 32 35 34
36 34 35 36
37 37 38 41
38 38 39 42
39 39 40 43
40 38 42 41
41 39 43 42
42 41 42 44
43 42 43 45
44 42 45 44
45 44 45 46
46 27 47 50
47 47 48 51
48 48 49 52
49 47 51 50
50 48 52 51
51 50 51 53
52 51 52 54
53 51 54 53
54 53 54 55
55 56 57 60
56 57 58 61
57 58 59 62
58 57 61 60
59 58 62 61
60 60 61 63
61 61 62 64
62 61 64 63
63 63 64 65
64 66 67 70
65 67 68 71
66 68 69 72
67 67 71 70
68 68 72 71
69 70 71 73
70 71 72 74
71 71 74 73
72 73 74 75
73 76 77 80
74 77 78 81
75 78 79 82
76 77 81 80
77 78 82 81
78 80 81 83
79 81 82 84
80 81 84 83
81 83 84 85
82 75 86 88
83 86 87 89
84 87 1 5
85 86 89 88
86 87 5 89
87 88 89 90
88 89 5 8
89 89 8 90
90 90 8 10
91 14 91 17
92 91 92 94
93 92 93 95
94 91 94 17
95 92 95 94
96 17 94 19
97 94 95 96
98 94 96 19
99 19 96 20
100 97 98 101
101 98 99 102
102 99 100 103
103 98 102 101
104 99 103 102
105 101 102 104
106 102 103 105
107 102 105 104
108 104 105 106
109 107 108 110
110 108 109 111
111 109 10 112
112 108 111 110
113 109 112 111
114 110 111 113
115 111 112 114
116 111 114 113
117 113 114 115
118 55 54 116
119 54 52 117
120 52 49 118
121 54 117 116
122 52 118 117
123 116 117 119
124 117 118 120
125 117 120 119
126 119 120 121
127 122 123 125
128 123 124 126
129 124 40 39
130 123 126 125
131 124 39 126
132 125 126 127
133 126 39 38
134 126 38 127
135 127 38 37
136 37 128 127
137 128 129 131
138 129 130 132
139 128 131 127
140 129 132 131
141 127 131 125
142 131 132 133
143 131 133 125
144 125 133 122
145 134 135 137
146 135 136 138
147 136 55 116
148 135 138 137
149 136 116 138
150 137 138 139
151 138 116 119
152 138 119 139
153 139 119 121
154 49 48 140
155 48 47 141
156 47 27 31
157 48 141 140
158 47 31 141
159 140 141 142
160 141 31 34
161 141 34 142
162 142 34 36
163 30 143 33
164 143 144 146
165 144 145 147
166 143 146 33
167 144 147 146
168 33 146 35
169 146 147 148
170 146 148 35
171 35 148 36
172 66 149 67
173 149 150 151
174 150 100 152
175 149 151 67
176 150 152 151
177 67 151 68
178 151 152 153
179 151 153 68
180 68 153 69
181 121 154 139
182 154 155 156
183 155 93 157
184 154 156 139
185 155 157 156
186 139 156 137
187 156 157 158
188 156 158 137
189 137 158 134
190 65 64 159
191 64 62 160
192 62 59 161
193 64 160 159
194 62 161 160
195 159 160 162
196 160 161 163
197 160 163 162
198 162 163 145
199 36 148 164
200 148 147 165
201 147 145 163
202 148 165 164
203 147 163 165
204 164 165 166
205 165 163 161
206 165 161 166
207 166 161 59
208 93 92 157
209 92 91 167
210 91 14 168
211 92 167 157
212 91 168 167
213 157 167 158
214 167 168 169
215 167 169 158
216 158 169 134
217 40 170 43
218 170 171 173
219 171 172 174
220 170 173 43
221 171 174 173
222 43 173 45
223 173 174 175
224 173 175 45
225 45 175 46
226 122 176 123
227 176 177 178
228 177 59 179
229 176 178 123
230 177 179 178
231 123 178 124
232 178 179 180
233 178 180 124
234 124 180 40
235 172 171 181
236 171 170 182
237 170 40 183
238 171 182 181
239 170 183 182
240 181 182 184
241 182 183 185
242 182 185 184
243 184 185 186
244 187 188 190
245 188 189 191
246 189 76 192
247 188 191 190
248 189 192 191
249 190 191 193
250 191 192 194
251 191 194 193
252 193 194 172
253 187 195 198
254 195 196 199
255 196 197 200
256 195 199 198
257 196 200 199
258 198 199 201
259 199 200 202
260 199 202 201
261 201 202 203
262 76 204 206
263 204 205 207
264 205 203 208
265 204 207 206
266 205 208 207
267 206 207 209
268 207 208 210
269 207 210 209
270 209 210 211
271 10 109 212
272 109 108 213
273 108 107 214
274 109 213 212
275 108 214 213
276 212 213 215
277 213 214 216
278 213 216 215
279 215 216 66
280 4 217 219
281 217 218 220
282 218 130 129
283 217 220 219
284 218 129 220
285 219 220 221
286 220 129 128
287 220 128 221
288 221 128 37
289 59 222 179
290 222 223 224
291 223 186 185
292 222 224 179
293 223 185 224
294 179 224 180
295 224 185 183
296 224 183 180
297 180 183 40
298 225 226 229
299 226 227 230
300 227 228 231
301 226 230 229
302 227 231 230
303 229 230 232
304 230 231 233
305 230 233 232
306 232 233 79
307 4 219 234
308 219 221 235
309 221 37 236
310 219 235 234
311 221 236 235
312 234 235 237
313 235 236 238
314 235 238 237
315 237 238 115
316 4 234 7
317 234 237 239
318 237 115 114
319 234 239 7
320 237 114 239
321 7 239 9
322 239 114 112
323 239 112 9
324 9 112 10
325 46 240 44
326 240 241 242
327 241 115 238
328 240 242 44
329 241 238 242
330 44 242 41
331 242 238 236
332 242 236 41
333 41 236 37
334 66 70 215
335 70 73 243
336 73 75 88
337 70 243 215
338 73 88 243
339 215 243 212
340 243 88 90
341 243 90 212
342 212 90 10
343 56 244 57
344 244 245 246
345 245 186 223
346 244 246 57
347 245 223 246
348 57 246 58
349 246 223 222
350 246 222 58
351 58 222 59
352 56 247 244
353 247 248 249
354 248 197 250
355 247 249 244
356 248 250 249
357 244 249 245
358 249 250 251
359 249 251 245
360 245 251 186
361 100 150 103
362 150 149 252
363 149 66 253
364 150 252 103
365 149 253 252
366 103 252 105
367 252 253 254
368 252 254 105
369 105 254 106
370 228 255 231
371 255 256 258
372 256 257 259
373 255 258 231
374 256 259 258
375 231 258 233
376 258 259 260
377 258 260 233
378 233 260 79
379 107 261 214
380 261 262 263
381 262 106 254
382 261 263 214
383 262 254 263
384 214 263 216
385 263 254 253
386 263 253 216
387 216 253 66
388 79 260 82
389 260 259 264
390 259 257 265
391 260 264 82
392 259 265 264
393 82 264 84
394 264 265 266
395 264 266 84
396 84 266 85
397 228 267 269
398 267 268 270
399 268 97 101
400 267 270 269
401 268 101 270
402 269 270 271
403 270 101 104
404 270 104 271
405 271 104 106
406 225 229 272
407 229 232 273
408 232 79 274
409 229 273 272
410 232 274 273
411 272 273 275
412 273 274 276
413 273 276 275
414 275 276 211
415 203 205 201
416 205 204 277
417 204 76 189
418 205 277 201
419 204 189 277
420 201 277 198
421 277 189 188
422 277 188 198
423 198 188 187
424 172 181 193
425 181 184 278
426 184 186 279
427 181 278 193
428 184 279 278
429 193 278 190
430 278 279 280
431 278 280 190
432 190 280 187
433 197 196 250
434 196 195 281
435 195 187 280
436 196 281 250
437 195 280 281
438 250 281 251
439 281 280 279
440 281 279 251
441 251 279 186
442 107 282 284
443 282 283 285
444 283 85 266
445 282 285 284
446 283 266 285
447 284 285 286
448 285 266 265
449 285 265 286
450 286 265 257
451 79 78 274
452 78 77 287
453 77 76 206
454 78 287 274
455 77 206 287
456 274 287 276
457 287 206 209
458 287 209 276
459 276 209 211
460 172 194 288
461 194 192 289
462 192 76 80
463 194 289 288
464 192 80 289
465 288 289 290
466 289 80 83
467 289 83 290
468 290 83 85
469 257 256 291
470 256 255 292
471 255 228 269
472 256 292 291
473 255 269 292
474 291 292 293
475 292 269 271
476 292 271 293
477 293 271 106
478 106 262 293
479 262 261 294
480 261 107 284
481 262 294 293
482 261 284 294
483 293 294 291
484 294 284 286
485 294 286 291
486 291 286 257
